<?xml version="1.0" encoding="UTF-8" standalone="yes"?>
<svg width="135px" height="46px" viewBox="0 0 135 46" version="1.1" xmlns="http://www.w3.org/2000/svg" xmlns:xlink="http://www.w3.org/1999/xlink">
								<defs>
									<linearGradient x1="91.5039455%" y1="4.96190818%" x2="-38.3274021%" y2="71.8998046%" id="linearGradient-1">
										<stop stop-color="#00A0FF" offset="0%"></stop>
										<stop stop-color="#00A1FF" offset="0.66%"></stop>
										<stop stop-color="#00BEFF" offset="26.01%"></stop>
										<stop stop-color="#00D2FF" offset="51.22%"></stop>
										<stop stop-color="#00DFFF" offset="76.04%"></stop>
										<stop stop-color="#00E3FF" offset="100%"></stop>
									</linearGradient>
									<linearGradient x1="107.583323%" y1="49.9941541%" x2="-130.477432%" y2="49.9941541%" id="linearGradient-2">
										<stop stop-color="#FFE000" offset="0%"></stop>
										<stop stop-color="#FFBD00" offset="40.87%"></stop>
										<stop stop-color="#FFA500" offset="77.54%"></stop>
										<stop stop-color="#FF9C00" offset="100%"></stop>
									</linearGradient>
									<linearGradient x1="86.252547%" y1="17.8365388%" x2="-50.1402373%" y2="194.798424%" id="linearGradient-3">
										<stop stop-color="#FF3A44" offset="0%"></stop>
										<stop stop-color="#C31162" offset="100%"></stop>
									</linearGradient>
									<linearGradient x1="-18.8097807%" y1="-54.1488449%" x2="42.0933717%" y2="24.8670947%" id="linearGradient-4">
										<stop stop-color="#32A071" offset="0%"></stop>
										<stop stop-color="#2DA771" offset="6.85%"></stop>
										<stop stop-color="#15CF74" offset="47.62%"></stop>
										<stop stop-color="#06E775" offset="80.09%"></stop>
										<stop stop-color="#00F076" offset="100%"></stop>
									</linearGradient>
								</defs>
								<g id="App-integration" stroke="none" stroke-width="1" fill="none" fill-rule="evenodd">
									<g id="States-App-integration-" transform="translate(-365.000000, -223.000000)">
										<g id="Btn_google-play-Copy" transform="translate(365.000000, 223.000000)">
											<rect id="Rectangle-5-Copy" stroke="#D7DFE2" x="0.5" y="0.5" width="134" height="45" rx="6"></rect>
											<path d="M70.1,25.8 C67.7,25.8 65.8,27.6 65.8,30.1 C65.8,32.5 67.7,34.4 70.1,34.4 C72.5,34.4 74.4,32.6 74.4,30.1 C74.4,27.5 72.5,25.8 70.1,25.8 Z M70.1,32.6 C68.8,32.6 67.7,31.5 67.7,30 C67.7,28.5 68.8,27.4 70.1,27.4 C71.4,27.4 72.5,28.4 72.5,30 C72.5,31.5 71.4,32.6 70.1,32.6 Z M60.8,25.8 C58.4,25.8 56.5,27.6 56.5,30.1 C56.5,32.5 58.4,34.4 60.8,34.4 C63.2,34.4 65.1,32.6 65.1,30.1 C65.1,27.5 63.2,25.8 60.8,25.8 Z M60.8,32.6 C59.5,32.6 58.4,31.5 58.4,30 C58.4,28.5 59.5,27.4 60.8,27.4 C62.1,27.4 63.2,28.4 63.2,30 C63.2,31.5 62.1,32.6 60.8,32.6 Z M49.7,27.1 L49.7,28.9 L54,28.9 C53.9,29.9 53.5,30.7 53,31.2 C52.4,31.8 51.4,32.5 49.7,32.5 C47,32.5 45,30.4 45,27.7 C45,25 47.1,22.9 49.7,22.9 C51.1,22.9 52.2,23.5 53,24.2 L54.3,22.9 C53.2,21.9 51.8,21.1 49.8,21.1 C46.2,21.1 43.1,24.1 43.1,27.7 C43.1,31.3 46.2,34.3 49.8,34.3 C51.8,34.3 53.2,33.7 54.4,32.4 C55.6,31.2 56,29.5 56,28.2 C56,27.8 56,27.4 55.9,27.1 L49.7,27.1 Z M95.1,28.5 C94.7,27.5 93.7,25.8 91.5,25.8 C89.3,25.8 87.5,27.5 87.5,30.1 C87.5,32.5 89.3,34.4 91.7,34.4 C93.6,34.4 94.8,33.2 95.2,32.5 L93.8,31.5 C93.3,32.2 92.7,32.7 91.7,32.7 C90.7,32.7 90.1,32.3 89.6,31.4 L95.3,29 L95.1,28.5 Z M89.3,29.9 C89.3,28.3 90.6,27.4 91.5,27.4 C92.2,27.4 92.9,27.8 93.1,28.3 L89.3,29.9 Z M84.6,34 L86.5,34 L86.5,21.5 L84.6,21.5 L84.6,34 Z M81.6,26.7 C81.1,26.2 80.3,25.7 79.3,25.7 C77.2,25.7 75.2,27.6 75.2,30 C75.2,32.4 77.1,34.2 79.3,34.2 C80.3,34.2 81.1,33.7 81.5,33.2 L81.6,33.2 L81.6,33.8 C81.6,35.4 80.7,36.3 79.3,36.3 C78.2,36.3 77.4,35.5 77.2,34.8 L75.6,35.5 C76.1,36.6 77.3,38 79.4,38 C81.6,38 83.4,36.7 83.4,33.6 L83.4,26 L81.6,26 L81.6,26.7 Z M79.4,32.6 C78.1,32.6 77,31.5 77,30 C77,28.5 78.1,27.4 79.4,27.4 C80.7,27.4 81.7,28.5 81.7,30 C81.7,31.5 80.7,32.6 79.4,32.6 Z M103.8,21.5 L99.3,21.5 L99.3,34 L101.2,34 L101.2,29.3 L103.8,29.3 C105.9,29.3 107.9,27.8 107.9,25.4 C107.9,23 105.9,21.5 103.8,21.5 Z M103.9,27.5 L101.2,27.5 L101.2,23.2 L103.9,23.2 C105.3,23.2 106.1,24.4 106.1,25.3 C106,26.4 105.2,27.5 103.9,27.5 Z M115.4,25.7 C114,25.7 112.6,26.3 112.1,27.6 L113.8,28.3 C114.2,27.6 114.8,27.4 115.5,27.4 C116.5,27.4 117.4,28 117.5,29 L117.5,29.1 C117.2,28.9 116.4,28.6 115.6,28.6 C113.8,28.6 112,29.6 112,31.4 C112,33.1 113.5,34.2 115.1,34.2 C116.4,34.2 117,33.6 117.5,33 L117.6,33 L117.6,34 L119.4,34 L119.4,29.2 C119.2,27 117.5,25.7 115.4,25.7 Z M115.2,32.6 C114.6,32.6 113.7,32.3 113.7,31.5 C113.7,30.5 114.8,30.2 115.7,30.2 C116.5,30.2 116.9,30.4 117.4,30.6 C117.2,31.8 116.2,32.6 115.2,32.6 Z M125.7,26 L123.6,31.4 L123.5,31.4 L121.3,26 L119.3,26 L122.6,33.6 L120.7,37.8 L122.6,37.8 L127.7,26 L125.7,26 Z M108.9,34 L110.8,34 L110.8,21.5 L108.9,21.5 L108.9,34 Z" id="Shape" fill="#D7DFE2" fill-rule="nonzero"></path>
											<path d="M44.1,18.3 L43.4,18.3 L43.4,16.3 L44,16.3 C44.5,15.9 44.8,15.1 44.8,14 L44.8,11 L48.8,11 L48.8,16.3 L49.5,16.3 L49.5,18.3 L48.8,18.3 L48.8,17 L44.2,17 L44.2,18.3 L44.1,18.3 Z M44.9,16.3 L47.9,16.3 L47.9,11.8 L45.4,11.8 L45.4,14 C45.3333333,15.1333333 45.1666667,15.9 44.9,16.3 Z M55.4,16.2 C54.8,16.8 54.1,17.1 53.2,17.1 C52.3,17.1 51.6,16.8 51,16.2 C50.4,15.6 50.1,14.9 50.1,14 C50.1,13.1 50.4,12.4 51,11.8 C51.6,11.2 52.3,10.9 53.2,10.9 C54.1,10.9 54.8,11.2 55.4,11.8 C56,12.4 56.3,13.1 56.3,14 C56.3,14.9 56,15.6 55.4,16.2 Z M51.6,15.7 C52,16.1 52.6,16.4 53.2,16.4 C53.8,16.4 54.4,16.2 54.8,15.7 C55.2,15.3 55.5,14.7 55.5,14 C55.5,13.3 55.3,12.7 54.8,12.3 C54.4,11.9 53.8,11.6 53.2,11.6 C52.6,11.6 52,11.8 51.6,12.3 C51.2,12.7 50.9,13.3 50.9,14 C50.9,14.7 51.1,15.3 51.6,15.7 Z M60.2,17.1 C59.3,17.1 58.6,16.8 58,16.2 C57.4,15.6 57.1,14.9 57.1,14 C57.1,13.1 57.4,12.4 58,11.8 C58.6,11.2 59.3,10.9 60.2,10.9 C61.1,10.9 61.8,11.2 62.4,11.9 L61.9,12.4 C61.5,11.9 60.9,11.6 60.2,11.6 C59.5,11.6 59,11.8 58.5,12.3 C58,12.7 57.8,13.3 57.8,14 C57.8,14.7 58,15.3 58.5,15.7 C58.9,16.1 59.5,16.4 60.2,16.4 C60.9,16.4 61.5,16.1 62,15.5 L62.5,16 C62.2,16.3 61.9,16.6 61.5,16.8 C61.1,17 60.7,17.1 60.2,17.1 Z M65.7,17 L64.9,17 L64.9,11.7 L63.2,11.7 L63.2,11 L67.3,11 L67.3,11.7 L65.6,11.7 L65.6,17 L65.7,17 Z M70.3,16.1 C70,16.8 69.5,17.2 68.9,17.2 C68.7,17.2 68.5,17.2 68.3,17.1 L68.5,16.4 C68.6,16.5 68.8,16.5 68.9,16.5 C69.1,16.5 69.2,16.5 69.3,16.4 C69.4,16.3 69.5,16.2 69.6,16 L69.8,15.5 L67.8,11.1 L68.7,11.1 L70.2,14.5 L71.6,11.1 L72.6,11.1 L70.3,16.1 Z M73.5,17 L73.5,11 L77.8,11 L77.8,17 L77,17 L77,11.7 L74.2,11.7 L74.2,17 L73.5,17 Z M79.2,17 L79.2,11 L80,11 L80,13.6 L83,13.6 L83,11 L83.8,11 L83.8,17 L83,17 L83,14.3 L80,14.3 L80,17 L79.2,17 Z M90.1,16.2 C89.5,16.8 88.8,17.1 87.9,17.1 C87,17.1 86.3,16.8 85.7,16.2 C85.1,15.6 84.8,14.9 84.8,14 C84.8,13.1 85.1,12.4 85.7,11.8 C86.3,11.2 87,10.9 87.9,10.9 C88.8,10.9 89.5,11.2 90.1,11.8 C90.7,12.4 91,13.1 91,14 C90.9,14.9 90.6,15.6 90.1,16.2 Z M86.2,15.7 C86.6,16.1 87.2,16.4 87.8,16.4 C88.4,16.4 89,16.2 89.4,15.7 C89.8,15.3 90.1,14.7 90.1,14 C90.1,13.3 89.9,12.7 89.4,12.3 C89,11.9 88.4,11.6 87.8,11.6 C87.2,11.6 86.6,11.8 86.2,12.3 C85.8,12.7 85.5,13.3 85.5,14 C85.5,14.7 85.8,15.3 86.2,15.7 Z M94.1,17 L94.1,11 L96.3,11 C96.8,11 97.2,11.2 97.5,11.5 C97.8,11.8 98,12.2 98,12.7 C98,13 97.9,13.2 97.8,13.5 C97.7,13.7 97.5,13.9 97.2,14 C97.5,14.1 97.7,14.3 97.9,14.5 C98.1,14.7 98.2,15 98.2,15.4 C98.2,15.9 98,16.3 97.7,16.6 C97.3,16.9 96.9,17.1 96.4,17.1 L94.1,17.1 L94.1,17 Z M94.9,13.6 L96.3,13.6 C96.6,13.6 96.8,13.5 97,13.3 C97.2,13.1 97.3,12.9 97.3,12.7 C97.3,12.5 97.2,12.3 97,12.1 C96.8,11.9 96.6,11.8 96.3,11.8 L94.9,11.8 L94.9,13.6 Z M94.9,16.3 L96.5,16.3 C96.8,16.3 97,16.2 97.2,16 C97.4,15.8 97.5,15.6 97.5,15.3 C97.5,15.1 97.4,14.8 97.2,14.6 C97,14.4 96.8,14.3 96.5,14.3 L95,14.3 L95,16.3 L94.9,16.3 Z" id="Combined-Shape" stroke="#D7DFE2" stroke-width="0.2" fill="#D7DFE2" fill-rule="nonzero"></path>
											<g id="Group" transform="translate(11.000000, 10.000000)" fill-rule="nonzero">
												<path d="M1.436,0.538 C1.145,0.846 0.973,1.324 0.973,1.943 L0.973,24.059 C0.973,24.679 1.145,25.156 1.436,25.464 L1.51,25.536 L13.899,13.147 L13.899,13.001 L13.899,12.855 L1.51,0.465 L1.436,0.538 Z" id="Shape" fill="url(#linearGradient-1)"></path>
												<path d="M18.028,17.278 L13.899,13.147 L13.899,13.001 L13.899,12.855 L18.029,8.725 L18.122,8.778 L23.015,11.558 C24.412,12.352 24.412,13.651 23.015,14.446 L18.122,17.226 L18.028,17.278 Z" id="Shape" fill="url(#linearGradient-2)"></path>
												<path d="M18.122,17.225 L13.898,13.001 L1.436,25.464 C1.896,25.952 2.657,26.012 3.514,25.526 L18.122,17.225" id="Shape" fill="url(#linearGradient-3)"></path>
												<path d="M18.122,8.777 L3.514,0.477 C2.657,-0.01 1.896,0.051 1.436,0.539 L13.899,13.002 L18.122,8.777 Z" id="Shape" fill="url(#linearGradient-4)"></path>
												<g transform="translate(0.000000, 17.000000)" fill="#000000" id="Shape">
													<path d="M18.029,0.132 L3.514,8.38 C2.702,8.841 1.976,8.81 1.51,8.391 L1.436,8.465 L1.51,8.537 C1.976,8.957 2.702,8.988 3.514,8.526 L18.122,0.226 L18.029,0.132 Z" opacity="0.2"></path>
													<path d="M1.436,8.318 C1.145,8.01 0.973,7.532 0.973,6.913 L0.973,7.059 C0.973,7.678 1.145,8.156 1.436,8.464 L1.51,8.39 L1.436,8.318 Z" opacity="0.12"></path>
												</g>
												<path d="M23.015,14.299 L18.029,17.132 L18.122,17.225 L23.015,14.445 C23.714,14.048 24.063,13.525 24.063,13.002 C24.004,13.475 23.648,13.938 23.015,14.299 Z" id="Shape" fill="#000000" opacity="0.12"></path>
												<path d="M3.514,0.623 L23.015,11.703 C23.649,12.063 24.004,12.527 24.063,13.001 C24.063,12.478 23.714,11.954 23.015,11.557 L3.514,0.477 C2.116,-0.317 0.973,0.343 0.973,1.943 L0.973,2.089 C0.973,0.489 2.116,-0.171 3.514,0.623 Z" id="Shape" fill="#FFFFFF" opacity="0.25"></path>
											</g>
										</g>
									</g>
								</g>
							</svg>
