<?xml version="1.0" encoding="UTF-8" standalone="yes"?>
<svg width="135px" height="46px" viewBox="0 0 135 46" version="1.1" xmlns="http://www.w3.org/2000/svg" xmlns:xlink="http://www.w3.org/1999/xlink">
								<g id="App-integration" stroke="none" stroke-width="1" fill="none" fill-rule="evenodd">
									<g id="States-App-integration-" transform="translate(-115.000000, -223.000000)">
										<g id="Btn_appStore-Copy" transform="translate(115.000000, 223.000000)">
											<rect id="Rectangle-5" stroke="#D7DFE2" x="0.5" y="0.5" width="134" height="45" rx="6"></rect>
											<path d="M24.99671,22.88935 C24.9988493,24.885287 26.1941431,26.6865494 28.03242,27.46405 C27.6788802,28.6125388 27.1459669,29.6979035 26.45342,30.67994 C25.52334,32.07122 24.54819,33.43045 23.00042,33.45557 C21.4965,33.49028 20.99109,32.57051 19.26615,32.57051 C17.52506,32.57051 16.98635,33.43045 15.54395,33.49028 C14.06994,33.54487 12.94345,32.00536 11.97957,30.62713 C10.05306,27.81252 8.55295,22.69513 10.56406,19.21313 C11.50847,17.5160473 13.2742791,16.439145 15.21543,16.37643 C16.69077,16.34608 18.06083,17.3728 18.9679,17.3728 C19.85777,17.3728 21.55066,16.14458 23.2969,16.32788 C24.9566895,16.3798105 26.4948204,17.211346 27.44729,18.57164 C25.94431,19.4956559 25.0194402,21.1251965 24.99671,22.88935 Z M22.15611,14.47681 C21.3373661,15.4951352 20.0967983,16.0816894 18.79022,16.06824 C18.7071256,14.7914154 19.134985,13.5339261 19.97956,12.57274 C20.8348645,11.5985343 22.0258135,10.9823349 23.31511,10.84692 C23.4157857,12.1615951 23.000021,13.4637352 22.15611,14.47681 Z" id="Combined-Shape" fill="#D7DFE2" fill-rule="nonzero"></path>
											<path d="M42.30178,30.13965 L37.56838,30.13965 L36.43166,33.4961 L34.42678,33.4961 L38.91018,21.0781 L40.99318,21.0781 L45.47658,33.4961 L43.43752,33.4961 L42.30178,30.13965 Z M38.05862,28.59082 L41.81062,28.59082 L39.961,23.14355 L39.9092,23.14355 L38.05862,28.59082 Z M55.1592,28.96973 C55.1592,31.78321 53.65334,33.59082 51.38088,33.59082 C50.2062653,33.6522646 49.0998424,33.0370307 48.53225,32.00682 L48.48925,32.00682 L48.48925,36.4912 L46.63085,36.4912 L46.63085,24.44238 L48.42968,24.44238 L48.42968,25.94824 L48.46386,25.94824 C49.0566683,24.9244879 50.1642843,24.3095188 51.34667,24.34765 C53.64455,24.34766 55.1592,26.16406 55.1592,28.96973 Z M53.24904,28.96973 C53.24904,27.13673 52.30177,25.93164 50.85646,25.93164 C49.43654,25.93164 48.48146,27.16211 48.48146,28.96973 C48.48146,30.79395 49.43654,32.01563 50.85646,32.01563 C52.30178,32.01563 53.249,30.81934 53.249,28.96973 L53.24904,28.96973 Z M65.12453,28.96973 C65.12453,31.78321 63.61818,33.59082 61.34572,33.59082 C60.1711053,33.6522646 59.0646824,33.0370307 58.49709,32.00682 L58.45409,32.00682 L58.45409,36.4912 L56.59569,36.4912 L56.59569,24.44238 L58.39452,24.44238 L58.39452,25.94824 L58.4287,25.94824 C59.0215083,24.9244879 60.1291243,24.3095188 61.31151,24.34765 C63.6094,24.34766 65.12453,26.16406 65.12453,28.96973 Z M63.21389,28.96973 C63.21389,27.13673 62.26662,25.93164 60.82131,25.93164 C59.40139,25.93164 58.44631,27.16211 58.44631,28.96973 C58.44631,30.79395 59.40139,32.01563 60.82131,32.01563 C62.26662,32.01563 63.21389,30.81934 63.21389,28.96973 Z M71.70949,30.03613 C71.84719,31.26758 73.04349,32.07613 74.67824,32.07613 C76.24465,32.07613 77.3716,31.26754 77.3716,30.15718 C77.3716,29.19331 76.69191,28.61618 75.08254,28.22066 L73.47317,27.83296 C71.1929,27.28218 70.1343,26.21577 70.1343,24.4853 C70.1343,22.34272 72.00149,20.87104 74.65188,20.87104 C77.27688,20.87104 79.07571,22.34272 79.13626,24.4853 L77.26026,24.4853 C77.14796,23.24604 76.12354,22.498 74.62647,22.498 C73.1294,22.498 72.10499,23.25484 72.10499,24.3564 C72.10499,25.23433 72.75929,25.75093 74.35987,26.1464 L75.72803,26.48234 C78.27588,27.08488 79.3335,28.10834 79.3335,29.92472 C79.3335,32.24796 77.48389,33.70304 74.5405,33.70304 C71.78659,33.70304 69.92722,32.28214 69.8071,30.03604 L71.70949,30.03613 Z M83.34621,22.2998 L83.34621,24.44238 L85.06789,24.44238 L85.06789,25.91406 L83.34621,25.91406 L83.34621,30.90527 C83.34621,31.68066 83.69094,32.04199 84.44777,32.04199 C84.6521614,32.0384259 84.8562221,32.0240726 85.0591,31.99899 L85.0591,33.46188 C84.7188283,33.5254596 84.3729708,33.5542545 84.02687,33.54782 C82.19387,33.54782 81.47902,32.85934 81.47902,31.10348 L81.47902,25.91406 L80.16262,25.91406 L80.16262,24.44238 L81.479,24.44238 L81.479,22.2998 L83.34621,22.2998 Z M86.064,28.96973 C86.064,26.1211 87.74173,24.33106 90.35795,24.33106 C92.98295,24.33106 94.65287,26.12106 94.65287,28.96973 C94.65287,31.82618 92.99174,33.6084 90.35795,33.6084 C87.72512,33.6084 86.064,31.82617 86.064,28.96973 Z M92.75931,28.96973 C92.75931,27.01563 91.8638,25.86231 90.35794,25.86231 C88.85208,25.86231 87.95657,27.02442 87.95657,28.96973 C87.95657,30.93164 88.85208,32.07618 90.35794,32.07618 C91.8638,32.07618 92.7593,30.93164 92.7593,28.96973 L92.75931,28.96973 Z M96.18508,24.44238 L97.95754,24.44238 L97.95754,25.98338 L98.00054,25.98338 C98.247716,24.9913684 99.1566726,24.3086316 100.17827,24.34764 C100.392434,24.3468922 100.606007,24.3701507 100.81499,24.41698 L100.81499,26.15526 C100.544621,26.0726433 100.26258,26.0347113 99.97999,26.04296 C99.4336382,26.0207954 98.9048909,26.2385347 98.5325815,26.639006 C98.160272,27.0394772 97.9815966,27.5826707 98.04347,28.12596 L98.04347,33.49608 L96.18507,33.49608 L96.18508,24.44238 Z M109.38332,30.83691 C109.13332,32.48046 107.53273,33.60839 105.48488,33.60839 C102.85109,33.60839 101.21633,31.84374 101.21633,29.01269 C101.21633,26.17285 102.85988,24.33105 105.40676,24.33105 C107.91164,24.33105 109.48684,26.05175 109.48684,28.79687 L109.48684,29.43359 L103.09231,29.43359 L103.09231,29.54589 C103.032607,30.2199216 103.265352,30.8871194 103.73134,31.3777699 C104.197328,31.8684204 104.851647,32.1352333 105.52786,32.11034 C106.429702,32.1948396 107.279963,31.6769777 107.61868,30.8369 L109.38332,30.83691 Z M103.101082,28.13477 L107.62746,28.13476 C107.661185,27.5290975 107.440717,26.9368231 107.01917,26.5006315 C106.597624,26.06444 106.013221,25.8238804 105.40676,25.83691 C104.795502,25.8332622 104.208111,26.0739346 103.775146,26.5054332 C103.34218,26.9369319 103.099516,27.5235029 103.101082,28.13477 Z" id="Combined-Shape" fill="#D7DFE2" fill-rule="nonzero"></path>
											<g id="Group" transform="translate(35.000000, 11.000000)" fill="#D7DFE2" fill-rule="nonzero">
												<path d="M1.7383,3.25342 L2.53615,3.25342 C2.81382221,3.28799816 3.09330496,3.20490489 3.30698387,3.0242427 C3.52066278,2.8435805 3.64907349,2.58180619 3.66115,2.30225 C3.66115,1.75196 3.24709,1.39649 2.54494,1.39649 C2.26065979,1.35676772 1.97239351,1.43363826 1.74563824,1.60963583 C1.51888297,1.7856334 1.37289344,2.04581331 1.34084,2.33106 L0.46484,2.33106 C0.495318307,1.81297064 0.739669244,1.33083047 1.1394703,0.999915635 C1.53927136,0.669000806 2.05858241,0.519058928 2.57324,0.58594 C3.74804,0.58594 4.57524,1.24365 4.57524,2.19043 C4.58091819,2.84404189 4.12917688,3.41278169 3.49124,3.55518 L3.49124,3.62549 C4.25526157,3.65937791 4.84834429,4.3041741 4.81839,5.06836 C4.76352528,5.60145535 4.49630037,6.08999884 4.07700973,6.42375946 C3.6577191,6.75752009 3.12169083,6.90837626 2.58987,6.84229 C2.05684323,6.91496094 1.51716162,6.76799216 1.09458358,6.43508616 C0.672005532,6.10218016 0.402785384,5.61189804 0.34866,5.07667 L1.23831,5.07667 C1.29202,5.64747 1.81644,6.01567 2.58987,6.01567 C3.3633,6.01567 3.86819,5.6021 3.86819,5.01909 C3.86819,4.42778 3.3926,4.06352 2.56155,4.06352 L1.7383,4.06352 L1.7383,3.25342 Z" id="Shape"></path>
												<path d="M5.82912,5.42432 C5.82912,4.61377 6.43361,4.14649 7.50392,4.08008 L8.72365,4.00977 L8.72365,3.6211 C8.72365,3.14551 8.41017,2.87696 7.80178,2.87696 C7.30569,2.87696 6.96291,3.05909 6.8633,3.37745 L6.00295,3.37745 C6.09377,2.60401 6.82229,2.10792 7.84377,2.10792 C8.97268,2.10792 9.6094,2.66992 9.6094,3.6211 L9.6094,6.69776 L8.75295,6.69776 L8.75295,6.06495 L8.68264,6.06495 C8.3920886,6.52707633 7.87539364,6.79716323 7.3301,6.77195 C6.94783612,6.81171181 6.56659115,6.68791066 6.28061581,6.43115244 C5.99464047,6.17439423 5.83062608,5.80864331 5.82912,5.42432 Z M8.72365,5.03955 L8.72365,4.66309 L7.624,4.7334 C7.00388,4.7749 6.72263,4.98584 6.72263,5.38281 C6.72263,5.78808 7.07419,6.02392 7.55763,6.02392 C7.84382257,6.0529014 8.12952343,5.96449186 8.3493264,5.77893119 C8.56912937,5.59337052 8.70421218,5.32654874 8.72365,5.03955 Z" id="Shape"></path>
												<polygon id="Shape" points="11.96779 2.94287 11.96779 6.69775 11.07912 6.69775 11.07912 2.19482 14.044 2.19482 14.044 2.94282"></polygon>
												<path d="M19.42971,4.44434 C19.42971,5.875 18.70608,6.77198 17.56936,6.77198 C16.9996446,6.81089115 16.459076,6.51584366 16.18362,6.01563 L16.1133,6.01563 L16.1133,8.19483 L15.22463,8.19483 L15.22463,2.19483 L16.0801,2.19483 L16.0801,2.939 L16.14651,2.939 C16.4265308,2.42200531 16.9727896,2.10567926 17.56057,2.12015 C18.70607,2.12012 19.42971,3.01318 19.42971,4.44434 Z M18.51565,4.44434 C18.51565,3.49317 18.06545,2.91846 17.31253,2.91846 C16.56453,2.91846 16.09671,3.50537 16.09671,4.44825 C16.09671,5.38673 16.56448,5.97413 17.30862,5.97413 C18.06545,5.97412 18.51565,5.39941 18.51565,4.44434 Z" id="Shape"></path>
												<path d="M20.6133,8.31055 L20.6133,7.54541 C20.7094676,7.55763024 20.8063661,7.56317684 20.9033,7.56201 C21.2953654,7.59105089 21.6463959,7.32019997 21.71775,6.93359 L21.78416,6.71435 L20.15428,2.19482 L21.12205,2.19482 L22.251,5.77148 L22.32131,5.77148 L23.44631,2.19482 L24.38869,2.19482 L22.71,6.88379 C22.32523,7.97949 21.89945,8.33106 20.98148,8.33106 C20.90725,8.33105 20.69631,8.32275 20.6133,8.31055 Z" id="Shape"></path>
												<path d="M25.08107,5.41992 L25.96584,5.41992 C26.05275,5.81692 26.42484,6.02392 26.94533,6.02392 C27.53713,6.02392 27.90041,5.76318 27.90041,5.35792 C27.90041,4.92384 27.57424,4.71681 26.94533,4.71681 L26.2715,4.71681 L26.2715,4.02638 L26.93361,4.02638 C27.47072,4.02638 27.74416,3.81984 27.74416,3.44338 C27.74416,3.11281 27.47951,2.86038 26.93361,2.86038 C26.43654,2.86038 26.07326,3.07132 26.01561,3.42679 L25.1592,3.42679 C25.2923987,2.57705761 26.0815556,1.99050793 26.93361,2.10794 C28.00392,2.10794 28.61623,2.59183 28.61623,3.35257 C28.6265285,3.78914212 28.3301463,4.17346269 27.90529,4.27445 L27.90529,4.34476 C28.4133317,4.41029119 28.7918955,4.84572159 28.78615,5.35794 C28.78615,6.21394 28.05763,6.7803 26.94533,6.7803 C25.96193,6.78027 25.16311,6.32959 25.08107,5.41992 Z" id="Shape"></path>
												<polygon id="Shape" points="30.06594 6.69775 30.06594 2.19482 30.9468 2.19482 30.9468 5.292 31.01711 5.292 33.09231 2.19483 33.97317 2.19483 33.97317 6.69776 33.09231 6.69776 33.09231 3.584 33.0259 3.584 30.9468 6.69777"></polygon>
												<polygon id="Shape" points="38.8257 2.94287 37.4077 2.94287 37.4077 6.69775 36.51805 6.69775 36.51805 2.94287 35.10005 2.94287 35.10005 2.19487 38.8257 2.19487"></polygon>
												<path d="M43.61281,5.48193 C43.3628947,6.33122407 42.5408329,6.8798113 41.66066,6.78466 C41.0602219,6.80051066 40.4831675,6.55162983 40.0826039,6.10405194 C39.6820404,5.65647405 39.4984632,5.05544753 39.58058,4.46044 C39.5006474,3.86378048 39.6835382,3.26179373 40.0818708,2.81043696 C40.4802034,2.35908018 41.054782,2.10276675 41.65675,2.1079 C42.90968,2.1079 43.66652,2.9639 43.66652,4.3779 L43.66652,4.688 L40.48684,4.688 L40.48684,4.7378 C40.4583651,5.07201959 40.5723691,5.40272069 40.8007524,5.64839244 C41.0291357,5.8940642 41.3506541,6.03185416 41.68606,6.0278 C42.1205273,6.07975005 42.5433366,5.86410072 42.75637,5.4819 L43.61281,5.48193 Z M40.48681,4.03076 L42.76025,4.03076 C42.7829535,3.72531709 42.6756519,3.42448388 42.4647735,3.20235527 C42.2538951,2.98022667 41.9590398,2.85744817 41.65283,2.86426 C41.342225,2.8600334 41.0431109,2.98159116 40.8235077,3.20129039 C40.6039045,3.42098963 40.4824776,3.72015691 40.48684,4.03076 L40.48681,4.03076 Z" id="Shape"></path>
												<path d="M47.38039,2.19482 L49.41066,2.19482 C50.29152,2.19482 50.80812,2.64111 50.80812,3.33982 C50.8109425,3.79673069 50.4937416,4.19333399 50.04738,4.29099 L50.04738,4.3613 C50.5935235,4.39580552 51.0168538,4.85219715 51.01027,5.39939 C51.01027,6.18503 50.41945,6.69773 49.43117,6.69773 L47.38039,6.69773 L47.38039,2.19482 Z M48.26125,2.87694 L48.26125,4.04295 L49.14211,4.04295 C49.67922,4.04295 49.93606,3.83641 49.93606,3.45555 C49.93606,3.10448 49.71243,2.87694 49.24075,2.87694 L48.26125,2.87694 Z M48.26125,4.69629 L48.26125,6.01563 L49.315,6.01563 C49.84039,6.01563 50.12164,5.7837 50.12164,5.35792 C50.12164,4.90724 49.80328,4.6963 49.20364,4.6963 L48.26125,4.69629 Z" id="Shape"></path>
											</g>
										</g>
									</g>
								</g>
							</svg>
