<?xml version="1.0" encoding="UTF-8"?>
<svg xmlns="http://www.w3.org/2000/svg" xmlns:xlink="http://www.w3.org/1999/xlink" width="48pt" height="48pt" viewBox="0 0 42 42" version="1.1">
<g id="surface1">
<path style=" stroke:none;fill-rule:nonzero;fill:rgb(26%, 36%, 39%);fill-opacity:1;" d="M 40 20 C 40 31.046875 31.046875 40 20 40 C 8.953125 40 0 31.046875 0 20 C 0 8.953125 8.953125 0 20 0 C 31.046875 0 40 8.953125 40 20 Z M 40 20 "/>
<path style=" stroke:none;fill-rule:nonzero;fill:rgb(100%,100%,100%);fill-opacity:1;" d="M 32.1875 9.0625 L 16.5625 9.0625 C 16.375 9.0625 16.25 9.1875 16.25 9.375 L 16.25 13.125 C 16.25 13.3125 16.375 13.4375 16.5625 13.4375 L 32.1875 13.4375 C 32.375 13.4375 32.5 13.3125 32.5 13.125 L 32.5 9.375 C 32.5 9.1875 32.375 9.0625 32.1875 9.0625 Z M 32.1875 9.0625 "/>
<path style=" stroke:none;fill-rule:nonzero;fill:rgb(100%,100%,100%);fill-opacity:1;" d="M 32.1875 17.8125 L 16.5625 17.8125 C 16.375 17.8125 16.25 17.9375 16.25 18.125 L 16.25 21.875 C 16.25 22.0625 16.375 22.1875 16.5625 22.1875 L 32.1875 22.1875 C 32.375 22.1875 32.5 22.0625 32.5 21.875 L 32.5 18.125 C 32.5 17.9375 32.375 17.8125 32.1875 17.8125 Z M 32.1875 17.8125 "/>
<path style=" stroke:none;fill-rule:nonzero;fill:rgb(100%,100%,100%);fill-opacity:1;" d="M 32.1875 26.5625 L 16.5625 26.5625 C 16.375 26.5625 16.25 26.6875 16.25 26.875 L 16.25 30.625 C 16.25 30.8125 16.375 30.9375 16.5625 30.9375 L 32.1875 30.9375 C 32.375 30.9375 32.5 30.8125 32.5 30.625 L 32.5 26.875 C 32.5 26.6875 32.375 26.5625 32.1875 26.5625 Z M 32.1875 26.5625 "/>
<path style=" stroke:none;fill-rule:nonzero;fill:rgb(100%,100%,100%);fill-opacity:1;" d="M 11.5625 9.0625 L 7.8125 9.0625 C 7.625 9.0625 7.5 9.1875 7.5 9.375 L 7.5 13.125 C 7.5 13.3125 7.625 13.4375 7.8125 13.4375 L 11.5625 13.4375 C 11.75 13.4375 11.875 13.3125 11.875 13.125 L 11.875 9.375 C 11.875 9.1875 11.75 9.0625 11.5625 9.0625 Z M 11.5625 9.0625 "/>
<path style=" stroke:none;fill-rule:nonzero;fill:rgb(100%,100%,100%);fill-opacity:1;" d="M 11.5625 17.8125 L 7.8125 17.8125 C 7.625 17.8125 7.5 17.9375 7.5 18.125 L 7.5 21.875 C 7.5 22.0625 7.625 22.1875 7.8125 22.1875 L 11.5625 22.1875 C 11.75 22.1875 11.875 22.0625 11.875 21.875 L 11.875 18.125 C 11.875 17.9375 11.75 17.8125 11.5625 17.8125 Z M 11.5625 17.8125 "/>
<path style=" stroke:none;fill-rule:nonzero;fill:rgb(100%,100%,100%);fill-opacity:1;" d="M 11.5625 26.5625 L 7.8125 26.5625 C 7.625 26.5625 7.5 26.6875 7.5 26.875 L 7.5 30.625 C 7.5 30.8125 7.625 30.9375 7.8125 30.9375 L 11.5625 30.9375 C 11.75 30.9375 11.875 30.8125 11.875 30.625 L 11.875 26.875 C 11.875 26.6875 11.75 26.5625 11.5625 26.5625 Z M 11.5625 26.5625 "/>
</g>
</svg>
