<?xml version="1.0" encoding="UTF-8"?>
<svg xmlns="http://www.w3.org/2000/svg" xmlns:xlink="http://www.w3.org/1999/xlink" width="156pt" height="24pt" viewBox="0 0 156 24" version="1.1">
<g id="surface1">
<path style=" stroke:none;fill-rule:nonzero;fill:rgb(255,255,255,0.8);fill-opacity:1;" d="M 54.140625 2.203125 L 59.101562 13.738281 L 64.015625 2.203125 L 67.285156 2.203125 L 67.285156 3.085938 C 66.613281 3.085938 66.277344 3.824219 66.277344 5.304688 L 66.277344 15.785156 C 66.277344 16.546875 66.613281 16.929688 67.285156 16.929688 L 67.285156 17.835938 L 61.886719 17.835938 L 61.886719 16.929688 C 62.5625 16.929688 62.9375 16.609375 63.007812 15.964844 L 63.007812 8.453125 L 58.792969 17.835938 L 57.523438 17.835938 L 52.910156 8.324219 L 52.910156 15.785156 C 52.910156 16.535156 53.253906 16.925781 53.941406 16.953125 L 53.941406 17.835938 L 50.5 17.835938 L 50.5 16.929688 C 51.1875 16.929688 51.53125 16.546875 51.53125 15.785156 L 51.53125 5.304688 C 51.53125 3.824219 51.1875 3.085938 50.5 3.085938 L 50.5 2.203125 Z M 74.488281 8.125 C 72.964844 8.125 72.203125 9.519531 72.203125 12.308594 C 72.246094 15.1875 73.03125 16.625 74.550781 16.625 C 76.058594 16.625 76.808594 15.199219 76.808594 12.355469 C 76.796875 9.535156 76.023438 8.125 74.488281 8.125 M 74.507812 6.914062 C 78.238281 6.914062 80.105469 8.742188 80.105469 12.394531 C 80.105469 16.035156 78.238281 17.855469 74.507812 17.855469 C 70.777344 17.855469 68.910156 16.035156 68.910156 12.394531 C 68.910156 8.742188 70.777344 6.914062 74.507812 6.914062 Z M 85.855469 14.730469 C 86.089844 15.933594 86.636719 16.554688 87.5 16.597656 C 88.90625 16.597656 89.609375 15.175781 89.609375 12.328125 C 89.5625 9.496094 88.839844 8.078125 87.4375 8.078125 C 86.730469 8.078125 86.203125 8.507812 85.855469 9.359375 L 85.855469 14.730469 M 82.625 17.347656 L 82.625 3.855469 C 82.570312 3.238281 82.019531 2.90625 80.980469 2.863281 L 80.980469 1.847656 C 82.472656 1.847656 84.097656 1.738281 85.855469 1.519531 L 85.855469 8.058594 C 86.46875 7.296875 87.539062 6.914062 89.0625 6.914062 C 91.589844 6.914062 92.875 8.71875 92.921875 12.328125 C 92.921875 15.984375 91.386719 17.828125 88.3125 17.855469 C 87.113281 17.855469 86.089844 17.449219 85.238281 16.644531 C 84.902344 17.1875 84.316406 17.621094 83.484375 17.945312 Z M 96.324219 9.269531 C 96.261719 8.652344 95.714844 8.324219 94.675781 8.277344 L 94.675781 7.289062 C 95.699219 7.289062 96.503906 7.269531 97.089844 7.222656 C 97.660156 7.175781 98.480469 7.089844 99.546875 6.960938 L 99.546875 15.785156 C 99.546875 16.546875 99.863281 16.929688 100.492188 16.929688 L 100.492188 17.835938 L 95.488281 17.835938 L 95.488281 16.953125 C 96.042969 16.925781 96.324219 16.535156 96.324219 15.785156 L 96.324219 9.269531 M 99.4375 3.015625 C 99.4375 4.085938 98.808594 4.625 97.554688 4.625 C 97.042969 4.625 96.59375 4.460938 96.210938 4.140625 C 95.847656 3.832031 95.664062 3.457031 95.664062 3.015625 C 95.664062 1.929688 96.292969 1.390625 97.554688 1.390625 C 98.808594 1.390625 99.4375 1.929688 99.4375 3.015625 Z M 103.28125 3.855469 C 103.21875 3.25 102.671875 2.914062 101.636719 2.839844 L 101.636719 1.847656 C 103.128906 1.847656 104.75 1.738281 106.503906 1.519531 L 106.503906 15.785156 C 106.503906 16.546875 106.820312 16.929688 107.453125 16.929688 L 107.453125 17.835938 L 102.449219 17.835938 L 102.449219 16.953125 C 103.003906 16.925781 103.28125 16.535156 103.28125 15.785156 Z M 115.878906 11.210938 C 115.820312 9.078125 115.367188 8.015625 114.519531 8.015625 C 113.667969 8.015625 113.066406 9.078125 112.714844 11.210938 L 115.878906 11.210938 M 114.363281 17.855469 C 110.925781 17.769531 109.175781 15.898438 109.117188 12.246094 C 109.277344 8.734375 111.019531 6.957031 114.339844 6.914062 C 115.890625 6.914062 117.089844 7.40625 117.9375 8.390625 C 118.757812 9.328125 119.167969 10.613281 119.167969 12.246094 L 112.648438 12.246094 C 112.679688 15.046875 113.417969 16.457031 114.867188 16.46875 C 116.199219 16.46875 117.222656 15.632812 117.9375 13.960938 L 118.796875 14.445312 C 118.152344 16.644531 116.671875 17.78125 114.363281 17.855469 Z M 125.183594 10.945312 L 125.183594 14.710938 C 125.183594 16.1875 125.726562 16.929688 126.804688 16.929688 L 126.804688 17.835938 L 120.375 17.835938 L 120.375 16.929688 C 121.414062 16.929688 121.933594 16.546875 121.933594 15.785156 L 121.933594 4.25 C 121.933594 3.503906 121.414062 3.113281 120.375 3.085938 L 120.375 2.203125 L 125.925781 2.203125 C 130.375 2.21875 132.601562 3.667969 132.601562 6.558594 C 132.601562 9.464844 130.375 10.925781 125.925781 10.945312 L 125.183594 10.945312 M 125.183594 3.277344 L 125.183594 9.003906 C 125.183594 9.5625 125.351562 9.84375 125.6875 9.84375 L 126.082031 9.84375 C 128.070312 9.785156 129.066406 8.6875 129.066406 6.558594 C 129.066406 4.433594 128.070312 3.339844 126.082031 3.277344 Z M 139.777344 11.800781 C 137.875 12.300781 136.921875 13.210938 136.921875 14.527344 C 136.996094 15.894531 137.582031 16.578125 138.679688 16.578125 C 139.089844 16.578125 139.457031 16.402344 139.777344 16.050781 L 139.777344 11.800781 M 138.65625 6.914062 C 141.539062 6.925781 143.019531 8.050781 143.09375 10.285156 L 143.09375 16.09375 C 143.09375 16.386719 143.222656 16.535156 143.484375 16.535156 C 143.722656 16.535156 143.949219 16.425781 144.167969 16.203125 L 144.496094 16.890625 C 143.984375 17.488281 143.261719 17.8125 142.324219 17.855469 C 141.050781 17.855469 140.269531 17.523438 139.976562 16.863281 C 139.4375 17.523438 138.410156 17.855469 136.902344 17.855469 C 134.839844 17.679688 133.800781 16.726562 133.789062 14.996094 C 133.789062 13.144531 134.6875 12.078125 136.484375 11.800781 C 138.296875 11.492188 139.417969 11.082031 139.84375 10.570312 L 139.84375 9.179688 C 139.738281 8.371094 139.527344 7.96875 139.203125 7.96875 C 138.871094 7.96875 138.660156 8.175781 138.570312 8.589844 C 138.453125 9.054688 138.210938 9.464844 137.84375 9.820312 C 137.480469 10.144531 137.023438 10.304688 136.484375 10.304688 C 135.636719 10.289062 135.210938 9.851562 135.210938 8.984375 C 135.226562 8.398438 135.519531 7.914062 136.089844 7.527344 C 136.921875 7.121094 137.78125 6.914062 138.65625 6.914062 Z M 145.265625 22.414062 C 144.050781 22.296875 143.441406 21.761719 143.441406 20.804688 C 143.585938 19.925781 144.136719 19.46875 145.089844 19.4375 C 145.574219 19.4375 146.039062 19.558594 146.492188 19.792969 C 146.652344 19.898438 146.835938 19.949219 147.039062 19.949219 C 147.304688 19.949219 147.578125 19.832031 147.851562 19.59375 C 148.335938 19.214844 148.8125 18.320312 149.28125 16.910156 L 146.84375 10.394531 C 146.15625 8.910156 145.441406 8.167969 144.691406 8.167969 L 144.691406 7.289062 L 150.289062 7.289062 L 150.289062 8.144531 C 149.894531 8.160156 149.695312 8.449219 149.695312 9.003906 C 149.695312 9.167969 149.71875 9.375 149.761719 9.625 L 151.058594 13.164062 L 152.636719 9.644531 C 152.769531 9.308594 152.835938 9.015625 152.835938 8.765625 C 152.835938 8.382812 152.625 8.175781 152.199219 8.144531 L 152.199219 7.289062 L 155.976562 7.289062 L 155.976562 8.144531 C 155.386719 8.160156 154.765625 8.910156 154.105469 10.394531 L 151.496094 16.269531 C 149.726562 20.367188 147.679688 22.414062 145.351562 22.414062 Z M 145.265625 22.414062 "/>
<path style=" stroke:none;fill-rule:nonzero;fill:rgb(255,255,250);fill-opacity:1;" d="M 25.917969 13.1875 L 25.917969 2.8125 C 25.917969 1.257812 24.660156 0 23.113281 0 L 2.804688 0 C 1.253906 0 0 1.257812 0 2.8125 L 0 13.1875 C 0 14.742188 1.253906 16 2.804688 16 L 23.113281 16 C 24.660156 16 25.917969 14.742188 25.917969 13.1875 Z M 0.996094 2.726562 C 0.996094 1.726562 1.835938 1 2.832031 1 L 23.097656 1 C 24.097656 1 24.921875 1.726562 24.921875 2.726562 L 24.921875 10.5 L 0.996094 10.5 Z M 2.832031 15 C 1.835938 15 0.996094 14.078125 0.996094 13.078125 L 0.996094 12.5 L 24.921875 12.5 L 24.921875 13.078125 C 24.921875 14.078125 24.09375 15 23.097656 15 Z M 2.832031 15 "/>
<path style=" stroke:none;fill-rule:nonzero;fill:rgb(255,255,255,0.8);fill-opacity:1;" d="M 20.933594 3.164062 L 20.933594 8.292969 L 23.050781 5.726562 Z M 20.933594 3.164062 "/>
<path style=" stroke:none;fill-rule:nonzero;fill:rgb(255,255,255,0.8);fill-opacity:1;" d="M 3.988281 4 L 7.476562 4 L 7.476562 5 L 3.988281 5 Z M 3.988281 4 "/>
<path style=" stroke:none;fill-rule:nonzero;fill:rgb(255,255,255,0.8);fill-opacity:1;" d="M 10.964844 6.855469 L 10.964844 6.5 L 3.988281 6.5 L 3.988281 7.5 L 10.964844 7.5 Z M 10.964844 6.855469 "/>
<path style=" stroke:none;fill-rule:nonzero;fill:rgb(255,255,255,0.8);fill-opacity:1;" d="M 42.59375 12.03125 C 42.867188 11.746094 43.023438 11.414062 43.023438 11.054688 C 43.023438 9.9375 41.558594 9.09375 39.617188 9.09375 C 37.675781 9.09375 36.210938 9.9375 36.210938 11.054688 C 36.210938 11.414062 36.367188 11.746094 36.640625 12.03125 C 36.367188 12.316406 36.210938 12.648438 36.210938 13.011719 C 36.210938 13.375 36.367188 13.707031 36.640625 13.992188 C 36.367188 14.277344 36.210938 14.609375 36.210938 14.96875 C 36.210938 15.332031 36.367188 15.664062 36.640625 15.949219 C 36.367188 16.234375 36.210938 16.566406 36.210938 16.929688 C 36.210938 16.945312 36.214844 16.964844 36.214844 16.984375 C 36.082031 16.964844 35.949219 16.957031 35.8125 16.957031 C 35.609375 16.957031 35.417969 16.976562 35.226562 17.011719 C 35.226562 16.984375 35.234375 16.957031 35.234375 16.929688 C 35.234375 16.566406 35.078125 16.234375 34.804688 15.949219 C 35.078125 15.664062 35.234375 15.332031 35.234375 14.96875 C 35.234375 14.609375 35.078125 14.277344 34.804688 13.992188 C 35.078125 13.707031 35.234375 13.375 35.234375 13.011719 C 35.234375 12.648438 35.078125 12.316406 34.804688 12.03125 C 35.078125 11.746094 35.234375 11.414062 35.234375 11.054688 C 35.234375 10.691406 35.078125 10.359375 34.804688 10.074219 C 35.078125 9.789062 35.234375 9.457031 35.234375 9.09375 C 35.234375 8.734375 35.078125 8.402344 34.804688 8.117188 C 35.078125 7.832031 35.234375 7.5 35.234375 7.136719 C 35.234375 6.777344 35.078125 6.441406 34.804688 6.160156 C 35.078125 5.875 35.234375 5.539062 35.234375 5.179688 C 35.234375 4.816406 35.078125 4.484375 34.804688 4.199219 C 35.078125 3.914062 35.234375 3.582031 35.234375 3.222656 C 35.234375 2.105469 33.769531 1.261719 31.828125 1.261719 C 29.886719 1.261719 28.421875 2.105469 28.421875 3.222656 C 28.421875 3.582031 28.578125 3.914062 28.851562 4.199219 C 28.578125 4.484375 28.421875 4.816406 28.421875 5.179688 C 28.421875 5.539062 28.578125 5.875 28.851562 6.160156 C 28.578125 6.445312 28.421875 6.777344 28.421875 7.136719 C 28.421875 7.5 28.578125 7.832031 28.851562 8.117188 C 28.578125 8.402344 28.421875 8.734375 28.421875 9.09375 C 28.421875 9.457031 28.578125 9.789062 28.851562 10.074219 C 28.578125 10.359375 28.421875 10.691406 28.421875 11.054688 C 28.421875 11.414062 28.578125 11.746094 28.851562 12.03125 C 28.578125 12.316406 28.421875 12.648438 28.421875 13.011719 C 28.421875 13.375 28.578125 13.707031 28.851562 13.992188 C 28.578125 14.277344 28.421875 14.609375 28.421875 14.96875 C 28.421875 15.332031 28.578125 15.664062 28.851562 15.949219 C 28.578125 16.234375 28.421875 16.566406 28.421875 16.929688 C 28.421875 17.289062 28.578125 17.621094 28.851562 17.90625 C 28.578125 18.191406 28.421875 18.523438 28.421875 18.886719 C 28.421875 19.246094 28.578125 19.578125 28.851562 19.863281 C 28.578125 20.148438 28.421875 20.480469 28.421875 20.84375 C 28.421875 21.960938 29.886719 22.800781 31.828125 22.800781 C 32.347656 22.800781 32.832031 22.742188 33.261719 22.632812 C 33.886719 23.339844 34.796875 23.789062 35.8125 23.789062 C 36.808594 23.789062 37.703125 23.355469 38.328125 22.664062 C 38.722656 22.753906 39.15625 22.800781 39.617188 22.800781 C 41.558594 22.800781 43.023438 21.960938 43.023438 20.84375 C 43.023438 20.480469 42.867188 20.148438 42.59375 19.863281 C 42.867188 19.578125 43.023438 19.246094 43.023438 18.886719 C 43.023438 18.523438 42.867188 18.191406 42.59375 17.90625 C 42.867188 17.621094 43.023438 17.289062 43.023438 16.929688 C 43.023438 16.566406 42.867188 16.234375 42.59375 15.949219 C 42.867188 15.664062 43.023438 15.332031 43.023438 14.96875 C 43.023438 14.609375 42.867188 14.277344 42.59375 13.992188 C 42.867188 13.707031 43.023438 13.375 43.023438 13.011719 C 43.023438 12.648438 42.867188 12.316406 42.59375 12.03125 Z M 39.617188 10.09375 C 41.066406 10.09375 42.027344 10.671875 42.027344 11.054688 C 42.027344 11.433594 41.066406 12.011719 39.617188 12.011719 C 38.167969 12.011719 37.207031 11.433594 37.207031 11.054688 C 37.207031 10.671875 38.167969 10.09375 39.617188 10.09375 Z M 39.617188 13.011719 C 40.429688 13.011719 41.160156 12.863281 41.734375 12.609375 C 41.917969 12.746094 42.027344 12.886719 42.027344 13.011719 C 42.027344 13.394531 41.066406 13.96875 39.617188 13.96875 C 38.167969 13.96875 37.207031 13.394531 37.207031 13.011719 C 37.207031 12.886719 37.316406 12.746094 37.5 12.609375 C 38.074219 12.863281 38.804688 13.011719 39.617188 13.011719 Z M 31.828125 2.261719 C 33.273438 2.261719 34.234375 2.839844 34.234375 3.21875 C 34.234375 3.601562 33.273438 4.179688 31.828125 4.179688 C 30.378906 4.179688 29.417969 3.601562 29.417969 3.21875 C 29.417969 2.835938 30.378906 2.261719 31.828125 2.261719 Z M 31.828125 5.175781 C 32.640625 5.175781 33.367188 5.027344 33.941406 4.773438 C 34.125 4.910156 34.234375 5.054688 34.234375 5.175781 C 34.234375 5.558594 33.273438 6.136719 31.828125 6.136719 C 30.378906 6.136719 29.417969 5.558594 29.417969 5.175781 C 29.417969 5.054688 29.527344 4.910156 29.710938 4.773438 C 30.285156 5.027344 31.011719 5.175781 31.828125 5.175781 Z M 31.828125 7.136719 C 32.640625 7.136719 33.367188 6.988281 33.941406 6.734375 C 34.125 6.871094 34.234375 7.011719 34.234375 7.136719 C 34.234375 7.515625 33.273438 8.09375 31.828125 8.09375 C 30.378906 8.09375 29.417969 7.515625 29.417969 7.136719 C 29.417969 7.011719 29.527344 6.871094 29.710938 6.734375 C 30.285156 6.988281 31.011719 7.136719 31.828125 7.136719 Z M 31.828125 9.09375 C 32.640625 9.09375 33.367188 8.945312 33.941406 8.691406 C 34.125 8.828125 34.234375 8.972656 34.234375 9.09375 C 34.234375 9.476562 33.273438 10.054688 31.828125 10.054688 C 30.378906 10.054688 29.417969 9.476562 29.417969 9.09375 C 29.417969 8.972656 29.527344 8.828125 29.710938 8.691406 C 30.285156 8.945312 31.011719 9.09375 31.828125 9.09375 Z M 31.828125 11.054688 C 32.640625 11.054688 33.367188 10.902344 33.941406 10.648438 C 34.125 10.785156 34.234375 10.929688 34.234375 11.054688 C 34.234375 11.433594 33.273438 12.011719 31.828125 12.011719 C 30.378906 12.011719 29.417969 11.433594 29.417969 11.054688 C 29.417969 10.929688 29.527344 10.785156 29.710938 10.648438 C 30.285156 10.902344 31.011719 11.054688 31.828125 11.054688 Z M 31.828125 13.011719 C 32.640625 13.011719 33.367188 12.863281 33.941406 12.609375 C 34.125 12.746094 34.234375 12.886719 34.234375 13.011719 C 34.234375 13.394531 33.273438 13.96875 31.828125 13.96875 C 30.378906 13.96875 29.417969 13.394531 29.417969 13.011719 C 29.417969 12.886719 29.527344 12.746094 29.710938 12.609375 C 30.285156 12.863281 31.011719 13.011719 31.828125 13.011719 Z M 31.828125 14.96875 C 32.640625 14.96875 33.367188 14.820312 33.941406 14.566406 C 34.125 14.703125 34.234375 14.847656 34.234375 14.96875 C 34.234375 15.351562 33.273438 15.929688 31.828125 15.929688 C 30.378906 15.929688 29.417969 15.351562 29.417969 14.96875 C 29.417969 14.847656 29.527344 14.703125 29.710938 14.566406 C 30.285156 14.820312 31.011719 14.96875 31.828125 14.96875 Z M 31.828125 16.929688 C 32.640625 16.929688 33.367188 16.777344 33.941406 16.523438 C 34.125 16.664062 34.234375 16.804688 34.234375 16.929688 C 34.234375 17.308594 33.273438 17.886719 31.828125 17.886719 C 30.378906 17.886719 29.417969 17.308594 29.417969 16.929688 C 29.417969 16.804688 29.527344 16.664062 29.710938 16.523438 C 30.285156 16.777344 31.011719 16.929688 31.828125 16.929688 Z M 31.828125 18.886719 C 32.160156 18.886719 32.480469 18.859375 32.785156 18.8125 C 32.625 19.117188 32.515625 19.453125 32.457031 19.804688 C 32.257812 19.828125 32.050781 19.84375 31.828125 19.84375 C 30.378906 19.84375 29.417969 19.269531 29.417969 18.886719 C 29.417969 18.765625 29.527344 18.621094 29.710938 18.484375 C 30.285156 18.738281 31.011719 18.886719 31.828125 18.886719 Z M 31.828125 21.804688 C 30.378906 21.804688 29.417969 21.226562 29.417969 20.84375 C 29.417969 20.722656 29.527344 20.578125 29.710938 20.441406 C 30.285156 20.695312 31.011719 20.84375 31.828125 20.84375 C 32.035156 20.84375 32.238281 20.832031 32.4375 20.816406 C 32.476562 21.132812 32.5625 21.441406 32.683594 21.726562 C 32.421875 21.773438 32.136719 21.804688 31.828125 21.804688 Z M 35.808594 22.789062 C 34.480469 22.789062 33.402344 21.707031 33.402344 20.375 C 33.402344 19.039062 34.480469 17.957031 35.808594 17.957031 C 37.136719 17.957031 38.21875 19.039062 38.21875 20.375 C 38.21875 21.707031 37.136719 22.789062 35.808594 22.789062 Z M 42.027344 20.84375 C 42.027344 21.226562 41.066406 21.804688 39.617188 21.804688 C 39.371094 21.804688 39.140625 21.78125 38.925781 21.75 C 39.050781 21.460938 39.140625 21.152344 39.183594 20.828125 C 39.324219 20.839844 39.46875 20.84375 39.617188 20.84375 C 40.429688 20.84375 41.160156 20.695312 41.734375 20.441406 C 41.917969 20.578125 42.027344 20.722656 42.027344 20.84375 Z M 42.027344 18.886719 C 42.027344 19.269531 41.066406 19.84375 39.617188 19.84375 C 39.460938 19.84375 39.3125 19.835938 39.167969 19.824219 C 39.109375 19.476562 39.003906 19.144531 38.847656 18.839844 C 39.09375 18.871094 39.351562 18.886719 39.617188 18.886719 C 40.429688 18.886719 41.160156 18.738281 41.734375 18.484375 C 41.917969 18.621094 42.027344 18.765625 42.027344 18.886719 Z M 42.027344 16.929688 C 42.027344 17.308594 41.066406 17.886719 39.617188 17.886719 C 38.167969 17.886719 37.207031 17.308594 37.207031 16.929688 C 37.207031 16.804688 37.316406 16.664062 37.503906 16.523438 C 38.074219 16.777344 38.804688 16.929688 39.617188 16.929688 C 40.433594 16.929688 41.160156 16.777344 41.734375 16.523438 C 41.917969 16.664062 42.027344 16.804688 42.027344 16.929688 Z M 42.027344 14.96875 C 42.027344 15.351562 41.066406 15.929688 39.617188 15.929688 C 38.167969 15.929688 37.207031 15.351562 37.207031 14.96875 C 37.207031 14.847656 37.316406 14.703125 37.503906 14.566406 C 38.074219 14.820312 38.804688 14.96875 39.617188 14.96875 C 40.433594 14.96875 41.160156 14.820312 41.734375 14.566406 C 41.917969 14.703125 42.027344 14.847656 42.027344 14.96875 Z M 42.027344 14.96875 "/>
<path style=" stroke:none;fill-rule:nonzero;fill:rgb(255,255,255,0.8);fill-opacity:1;" d="M 23.996094 17.929688 C 22.054688 17.929688 20.589844 18.769531 20.589844 19.886719 C 20.589844 20.25 20.746094 20.582031 21.019531 20.867188 C 20.746094 21.152344 20.589844 21.484375 20.589844 21.84375 C 20.589844 22.960938 22.054688 23.804688 23.996094 23.804688 C 25.9375 23.804688 27.402344 22.960938 27.402344 21.84375 C 27.402344 21.484375 27.246094 21.152344 26.972656 20.867188 C 27.246094 20.582031 27.402344 20.25 27.402344 19.886719 C 27.402344 18.769531 25.9375 17.929688 23.996094 17.929688 Z M 23.996094 18.929688 C 25.445312 18.929688 26.40625 19.503906 26.40625 19.886719 C 26.40625 20.269531 25.445312 20.84375 23.996094 20.84375 C 22.546875 20.84375 21.585938 20.269531 21.585938 19.886719 C 21.585938 19.503906 22.546875 18.929688 23.996094 18.929688 Z M 26.40625 21.84375 C 26.40625 22.226562 25.445312 22.804688 23.996094 22.804688 C 22.546875 22.804688 21.585938 22.226562 21.585938 21.84375 C 21.585938 21.722656 21.695312 21.578125 21.882812 21.441406 C 22.453125 21.695312 23.183594 21.84375 23.996094 21.84375 C 24.8125 21.84375 25.539062 21.695312 26.113281 21.441406 C 26.296875 21.578125 26.40625 21.722656 26.40625 21.84375 Z M 26.40625 21.84375 "/>
</g>
</svg>
