<?xml version="1.0" encoding="UTF-8"?>
<svg xmlns="http://www.w3.org/2000/svg" xmlns:xlink="http://www.w3.org/1999/xlink" width="183pt" height="28pt" viewBox="0 0 183 28" version="1.1">
<g id="surface1">
<path style=" stroke:none;fill-rule:nonzero;fill:rgb(26%, 36%, 39%);fill-opacity:1;" d="M 63.464844 2.585938 L 69.28125 16.109375 L 75.039062 2.585938 L 78.871094 2.585938 L 78.871094 3.617188 C 78.085938 3.617188 77.691406 4.480469 77.691406 6.21875 L 77.691406 18.503906 C 77.691406 19.402344 78.085938 19.847656 78.871094 19.847656 L 78.871094 20.910156 L 72.542969 20.910156 L 72.542969 19.847656 C 73.335938 19.847656 73.773438 19.46875 73.859375 18.71875 L 73.859375 9.910156 L 68.917969 20.910156 L 67.425781 20.910156 L 62.023438 9.757812 L 62.023438 18.503906 C 62.023438 19.382812 62.425781 19.84375 63.230469 19.878906 L 63.230469 20.910156 L 59.195312 20.910156 L 59.195312 19.847656 C 60 19.847656 60.402344 19.402344 60.402344 18.503906 L 60.402344 6.21875 C 60.402344 4.480469 60 3.617188 59.195312 3.617188 L 59.195312 2.585938 Z M 87.3125 9.523438 C 85.53125 9.523438 84.640625 11.160156 84.640625 14.429688 C 84.691406 17.804688 85.605469 19.488281 87.390625 19.488281 C 89.15625 19.488281 90.039062 17.820312 90.039062 14.484375 C 90.023438 11.179688 89.113281 9.523438 87.3125 9.523438 M 87.339844 8.105469 C 91.710938 8.105469 93.898438 10.25 93.898438 14.53125 C 93.898438 18.796875 91.710938 20.929688 87.339844 20.929688 C 82.964844 20.929688 80.777344 18.796875 80.777344 14.53125 C 80.777344 10.25 82.964844 8.105469 87.339844 8.105469 Z M 100.640625 17.269531 C 100.914062 18.679688 101.554688 19.410156 102.570312 19.460938 C 104.21875 19.460938 105.039062 17.792969 105.039062 14.453125 C 104.984375 11.132812 104.136719 9.472656 102.492188 9.472656 C 101.667969 9.472656 101.050781 9.972656 100.640625 10.972656 L 100.640625 17.269531 M 96.855469 20.339844 L 96.855469 4.519531 C 96.789062 3.796875 96.144531 3.410156 94.925781 3.359375 L 94.925781 2.167969 C 96.675781 2.167969 98.578125 2.039062 100.640625 1.78125 L 100.640625 9.449219 C 101.359375 8.554688 102.613281 8.105469 104.394531 8.105469 C 107.359375 8.105469 108.871094 10.222656 108.925781 14.453125 C 108.925781 18.742188 107.121094 20.902344 103.519531 20.929688 C 102.113281 20.929688 100.914062 20.460938 99.914062 19.511719 C 99.523438 20.152344 98.835938 20.65625 97.859375 21.039062 Z M 112.910156 10.867188 C 112.839844 10.144531 112.199219 9.757812 110.980469 9.707031 L 110.980469 8.546875 C 112.179688 8.546875 113.121094 8.519531 113.808594 8.46875 C 114.480469 8.414062 115.441406 8.308594 116.6875 8.160156 L 116.6875 18.503906 C 116.6875 19.402344 117.058594 19.847656 117.800781 19.847656 L 117.800781 20.910156 L 111.933594 20.910156 L 111.933594 19.878906 C 112.582031 19.84375 112.910156 19.382812 112.910156 18.503906 L 112.910156 10.867188 M 116.5625 3.535156 C 116.5625 4.792969 115.824219 5.421875 114.351562 5.421875 C 113.75 5.421875 113.226562 5.234375 112.78125 4.851562 C 112.351562 4.492188 112.136719 4.054688 112.136719 3.535156 C 112.136719 2.261719 112.875 1.628906 114.351562 1.628906 C 115.824219 1.628906 116.5625 2.261719 116.5625 3.535156 Z M 121.066406 4.519531 C 120.992188 3.8125 120.351562 3.414062 119.136719 3.328125 L 119.136719 2.167969 C 120.886719 2.167969 122.789062 2.039062 124.84375 1.78125 L 124.84375 18.503906 C 124.84375 19.402344 125.214844 19.847656 125.953125 19.847656 L 125.953125 20.910156 L 120.089844 20.910156 L 120.089844 19.878906 C 120.738281 19.84375 121.066406 19.382812 121.066406 18.503906 Z M 135.832031 13.140625 C 135.765625 10.644531 135.230469 9.394531 134.238281 9.394531 C 133.242188 9.394531 132.539062 10.644531 132.121094 13.140625 L 135.832031 13.140625 M 134.058594 20.929688 C 130.027344 20.828125 127.976562 18.640625 127.90625 14.355469 C 128.097656 10.242188 130.136719 8.15625 134.027344 8.105469 C 135.847656 8.105469 137.253906 8.683594 138.246094 9.835938 C 139.210938 10.9375 139.6875 12.445312 139.6875 14.355469 L 132.046875 14.355469 C 132.082031 17.640625 132.949219 19.292969 134.648438 19.308594 C 136.210938 19.308594 137.410156 18.328125 138.246094 16.367188 L 139.253906 16.933594 C 138.496094 19.511719 136.765625 20.84375 134.058594 20.929688 Z M 146.742188 12.832031 L 146.742188 17.246094 C 146.742188 18.980469 147.375 19.847656 148.640625 19.847656 L 148.640625 20.910156 L 141.105469 20.910156 L 141.105469 19.847656 C 142.324219 19.847656 142.929688 19.402344 142.929688 18.503906 L 142.929688 4.980469 C 142.929688 4.105469 142.324219 3.652344 141.105469 3.617188 L 141.105469 2.585938 L 147.613281 2.585938 C 152.828125 2.601562 155.4375 4.300781 155.4375 7.691406 C 155.4375 11.097656 152.828125 12.8125 147.613281 12.832031 L 146.742188 12.832031 M 146.742188 3.84375 L 146.742188 10.558594 C 146.742188 11.214844 146.9375 11.539062 147.332031 11.539062 L 147.792969 11.539062 C 150.125 11.472656 151.292969 10.1875 151.292969 7.691406 C 151.292969 5.199219 150.125 3.914062 147.792969 3.84375 Z M 163.847656 13.832031 C 161.617188 14.417969 160.5 15.488281 160.5 17.035156 C 160.585938 18.636719 161.273438 19.4375 162.5625 19.4375 C 163.042969 19.4375 163.46875 19.230469 163.847656 18.816406 L 163.847656 13.832031 M 162.535156 8.105469 C 165.914062 8.121094 167.644531 9.4375 167.730469 12.058594 L 167.730469 18.871094 C 167.730469 19.214844 167.886719 19.382812 168.195312 19.382812 C 168.46875 19.382812 168.738281 19.257812 168.996094 19 L 169.378906 19.800781 C 168.78125 20.503906 167.933594 20.878906 166.832031 20.929688 C 165.34375 20.929688 164.425781 20.546875 164.082031 19.769531 C 163.445312 20.546875 162.246094 20.929688 160.476562 20.929688 C 158.058594 20.726562 156.839844 19.613281 156.824219 17.578125 C 156.824219 15.410156 157.878906 14.164062 159.988281 13.832031 C 162.113281 13.472656 163.425781 12.992188 163.925781 12.390625 L 163.925781 10.761719 C 163.804688 9.816406 163.550781 9.34375 163.175781 9.34375 C 162.78125 9.34375 162.535156 9.585938 162.433594 10.070312 C 162.292969 10.617188 162.007812 11.097656 161.582031 11.511719 C 161.152344 11.890625 160.621094 12.078125 159.988281 12.078125 C 158.992188 12.066406 158.496094 11.546875 158.496094 10.53125 C 158.511719 9.847656 158.855469 9.277344 159.523438 8.828125 C 160.503906 8.34375 161.507812 8.105469 162.535156 8.105469 Z M 170.28125 26.277344 C 168.855469 26.140625 168.140625 25.511719 168.140625 24.390625 C 168.3125 23.359375 168.957031 22.828125 170.074219 22.789062 C 170.640625 22.789062 171.1875 22.929688 171.71875 23.207031 C 171.90625 23.328125 172.121094 23.386719 172.359375 23.386719 C 172.671875 23.386719 172.988281 23.25 173.3125 22.972656 C 173.882812 22.527344 174.4375 21.476562 174.988281 19.824219 L 172.132812 12.1875 C 171.324219 10.445312 170.484375 9.578125 169.605469 9.578125 L 169.605469 8.546875 L 176.167969 8.546875 L 176.167969 9.550781 C 175.707031 9.566406 175.472656 9.902344 175.472656 10.558594 C 175.472656 10.746094 175.496094 10.992188 175.546875 11.285156 L 177.066406 15.433594 L 178.917969 11.308594 C 179.078125 10.914062 179.15625 10.566406 179.15625 10.273438 C 179.15625 9.824219 178.90625 9.582031 178.40625 9.550781 L 178.40625 8.546875 L 182.835938 8.546875 L 182.835938 9.550781 C 182.144531 9.566406 181.414062 10.445312 180.644531 12.1875 L 177.582031 19.074219 C 175.511719 23.878906 173.109375 26.277344 170.378906 26.277344 Z M 170.28125 26.277344 "/>
<path style=" stroke:none;fill-rule:nonzero;fill:rgb(26%, 36%, 39%);fill-opacity:1;" d="M 30.382812 15.460938 L 30.382812 3.296875 C 30.382812 1.476562 28.910156 0 27.09375 0 L 3.289062 0 C 1.472656 0 0 1.476562 0 3.296875 L 0 15.460938 C 0 17.28125 1.472656 18.757812 3.289062 18.757812 L 27.09375 18.757812 C 28.910156 18.757812 30.382812 17.28125 30.382812 15.460938 Z M 1.167969 3.199219 C 1.167969 2.023438 2.152344 1.171875 3.320312 1.171875 L 27.078125 1.171875 C 28.246094 1.171875 29.210938 2.023438 29.210938 3.199219 L 29.210938 12.308594 L 1.167969 12.308594 Z M 3.320312 17.585938 C 2.152344 17.585938 1.167969 16.503906 1.167969 15.332031 L 1.167969 14.65625 L 29.210938 14.65625 L 29.210938 15.332031 C 29.210938 16.503906 28.242188 17.585938 27.078125 17.585938 Z M 3.320312 17.585938 "/>
<path style=" stroke:none;fill-rule:nonzero;fill:rgb(26%, 36%, 39%);fill-opacity:1;" d="M 24.539062 3.710938 L 24.539062 9.722656 L 27.019531 6.714844 Z M 24.539062 3.710938 "/>
<path style=" stroke:none;fill-rule:nonzero;fill:rgb(26%, 36%, 39%);fill-opacity:1;" d="M 4.671875 4.6875 L 8.765625 4.6875 L 8.765625 5.863281 L 4.671875 5.863281 Z M 4.671875 4.6875 "/>
<path style=" stroke:none;fill-rule:nonzero;fill:rgb(26%, 36%, 39%);fill-opacity:1;" d="M 12.851562 8.039062 L 12.851562 7.621094 L 4.671875 7.621094 L 4.671875 8.792969 L 12.851562 8.792969 Z M 12.851562 8.039062 "/>
<path style=" stroke:none;fill-rule:nonzero;fill:rgb(26%, 36%, 39%);fill-opacity:1;" d="M 49.925781 14.105469 C 50.246094 13.773438 50.433594 13.382812 50.433594 12.957031 C 50.433594 11.652344 48.714844 10.664062 46.441406 10.664062 C 44.164062 10.664062 42.445312 11.652344 42.445312 12.957031 C 42.445312 13.382812 42.632812 13.773438 42.953125 14.105469 C 42.632812 14.441406 42.445312 14.828125 42.445312 15.253906 C 42.445312 15.679688 42.632812 16.070312 42.953125 16.402344 C 42.632812 16.734375 42.445312 17.128906 42.445312 17.550781 C 42.445312 17.972656 42.632812 18.367188 42.953125 18.699219 C 42.632812 19.035156 42.445312 19.421875 42.445312 19.84375 C 42.445312 19.867188 42.453125 19.886719 42.453125 19.910156 C 42.296875 19.890625 42.140625 19.878906 41.976562 19.878906 C 41.742188 19.878906 41.515625 19.90625 41.289062 19.941406 C 41.292969 19.910156 41.300781 19.878906 41.300781 19.84375 C 41.300781 19.421875 41.117188 19.03125 40.796875 18.699219 C 41.117188 18.363281 41.300781 17.972656 41.300781 17.550781 C 41.300781 17.128906 41.117188 16.734375 40.796875 16.402344 C 41.117188 16.070312 41.300781 15.679688 41.300781 15.253906 C 41.300781 14.828125 41.117188 14.441406 40.796875 14.105469 C 41.117188 13.773438 41.300781 13.382812 41.300781 12.957031 C 41.300781 12.535156 41.117188 12.144531 40.796875 11.8125 C 41.117188 11.476562 41.300781 11.085938 41.300781 10.664062 C 41.300781 10.238281 41.117188 9.847656 40.796875 9.515625 C 41.117188 9.179688 41.300781 8.792969 41.300781 8.367188 C 41.300781 7.941406 41.117188 7.554688 40.796875 7.21875 C 41.117188 6.886719 41.300781 6.496094 41.300781 6.070312 C 41.300781 5.648438 41.117188 5.257812 40.796875 4.925781 C 41.117188 4.589844 41.300781 4.199219 41.300781 3.777344 C 41.300781 2.464844 39.582031 1.480469 37.308594 1.480469 C 35.03125 1.480469 33.316406 2.464844 33.316406 3.777344 C 33.316406 4.199219 33.496094 4.589844 33.820312 4.925781 C 33.496094 5.257812 33.316406 5.648438 33.316406 6.070312 C 33.316406 6.496094 33.496094 6.886719 33.820312 7.21875 C 33.496094 7.554688 33.316406 7.941406 33.316406 8.367188 C 33.316406 8.792969 33.496094 9.179688 33.820312 9.515625 C 33.496094 9.847656 33.316406 10.238281 33.316406 10.664062 C 33.316406 11.085938 33.496094 11.476562 33.820312 11.8125 C 33.496094 12.148438 33.316406 12.535156 33.316406 12.957031 C 33.316406 13.382812 33.496094 13.773438 33.820312 14.105469 C 33.496094 14.441406 33.316406 14.828125 33.316406 15.253906 C 33.316406 15.679688 33.496094 16.070312 33.820312 16.402344 C 33.496094 16.734375 33.316406 17.128906 33.316406 17.550781 C 33.316406 17.972656 33.496094 18.367188 33.820312 18.699219 C 33.496094 19.035156 33.316406 19.421875 33.316406 19.84375 C 33.316406 20.269531 33.496094 20.660156 33.820312 20.992188 C 33.496094 21.328125 33.316406 21.71875 33.316406 22.140625 C 33.316406 22.566406 33.496094 22.957031 33.820312 23.289062 C 33.496094 23.621094 33.316406 24.011719 33.316406 24.4375 C 33.316406 25.746094 35.035156 26.734375 37.308594 26.734375 C 37.917969 26.734375 38.484375 26.660156 38.988281 26.53125 C 39.722656 27.363281 40.789062 27.890625 41.976562 27.890625 C 43.148438 27.890625 44.195312 27.378906 44.925781 26.574219 C 45.390625 26.675781 45.898438 26.734375 46.441406 26.734375 C 48.714844 26.734375 50.433594 25.746094 50.433594 24.4375 C 50.433594 24.011719 50.246094 23.621094 49.925781 23.289062 C 50.246094 22.957031 50.433594 22.566406 50.433594 22.140625 C 50.433594 21.71875 50.246094 21.328125 49.925781 20.992188 C 50.246094 20.660156 50.433594 20.269531 50.433594 19.84375 C 50.433594 19.421875 50.246094 19.03125 49.925781 18.699219 C 50.246094 18.363281 50.433594 17.972656 50.433594 17.550781 C 50.433594 17.128906 50.246094 16.734375 49.925781 16.402344 C 50.246094 16.070312 50.433594 15.679688 50.433594 15.253906 C 50.433594 14.828125 50.246094 14.441406 49.925781 14.105469 Z M 46.4375 11.835938 C 48.136719 11.835938 49.261719 12.511719 49.261719 12.957031 C 49.261719 13.40625 48.136719 14.082031 46.4375 14.082031 C 44.742188 14.082031 43.617188 13.40625 43.617188 12.957031 C 43.617188 12.511719 44.742188 11.835938 46.4375 11.835938 Z M 46.4375 15.253906 C 47.394531 15.253906 48.246094 15.078125 48.917969 14.78125 C 49.136719 14.941406 49.261719 15.113281 49.261719 15.253906 C 49.261719 15.703125 48.136719 16.378906 46.4375 16.378906 C 44.742188 16.378906 43.617188 15.703125 43.617188 15.253906 C 43.617188 15.113281 43.742188 14.941406 43.960938 14.78125 C 44.632812 15.078125 45.484375 15.253906 46.4375 15.253906 Z M 37.308594 2.652344 C 39.007812 2.652344 40.132812 3.328125 40.132812 3.773438 C 40.132812 4.222656 39.007812 4.898438 37.308594 4.898438 C 35.609375 4.898438 34.480469 4.222656 34.480469 3.773438 C 34.480469 3.328125 35.609375 2.652344 37.308594 2.652344 Z M 37.308594 6.070312 C 38.261719 6.070312 39.117188 5.894531 39.789062 5.597656 C 40 5.757812 40.132812 5.925781 40.132812 6.070312 C 40.132812 6.515625 39.007812 7.191406 37.308594 7.191406 C 35.609375 7.191406 34.480469 6.515625 34.480469 6.070312 C 34.480469 5.925781 34.609375 5.757812 34.828125 5.597656 C 35.5 5.894531 36.351562 6.070312 37.308594 6.070312 Z M 37.308594 8.367188 C 38.261719 8.367188 39.117188 8.191406 39.789062 7.890625 C 40 8.054688 40.132812 8.222656 40.132812 8.367188 C 40.132812 8.8125 39.007812 9.488281 37.308594 9.488281 C 35.609375 9.488281 34.480469 8.8125 34.480469 8.367188 C 34.480469 8.222656 34.609375 8.054688 34.828125 7.890625 C 35.5 8.191406 36.351562 8.367188 37.308594 8.367188 Z M 37.308594 10.660156 C 38.261719 10.660156 39.117188 10.488281 39.789062 10.191406 C 40 10.351562 40.132812 10.515625 40.132812 10.660156 C 40.132812 11.109375 39.007812 11.789062 37.308594 11.789062 C 35.609375 11.789062 34.480469 11.109375 34.480469 10.660156 C 34.480469 10.519531 34.609375 10.351562 34.828125 10.191406 C 35.5 10.488281 36.351562 10.660156 37.308594 10.660156 Z M 37.308594 12.957031 C 38.261719 12.957031 39.117188 12.78125 39.789062 12.484375 C 40 12.648438 40.132812 12.8125 40.132812 12.957031 C 40.132812 13.40625 39.007812 14.082031 37.308594 14.082031 C 35.609375 14.082031 34.480469 13.40625 34.480469 12.957031 C 34.480469 12.8125 34.609375 12.648438 34.828125 12.484375 C 35.5 12.78125 36.351562 12.957031 37.308594 12.957031 Z M 37.308594 15.253906 C 38.261719 15.253906 39.117188 15.078125 39.789062 14.78125 C 40 14.941406 40.132812 15.113281 40.132812 15.253906 C 40.132812 15.703125 39.007812 16.378906 37.308594 16.378906 C 35.609375 16.378906 34.480469 15.703125 34.480469 15.253906 C 34.480469 15.113281 34.609375 14.941406 34.828125 14.78125 C 35.5 15.078125 36.351562 15.253906 37.308594 15.253906 Z M 37.308594 17.550781 C 38.261719 17.550781 39.117188 17.375 39.789062 17.078125 C 40 17.238281 40.132812 17.40625 40.132812 17.550781 C 40.132812 18 39.007812 18.675781 37.308594 18.675781 C 35.609375 18.675781 34.480469 18 34.480469 17.550781 C 34.480469 17.40625 34.609375 17.238281 34.828125 17.078125 C 35.5 17.375 36.351562 17.550781 37.308594 17.550781 Z M 37.308594 19.84375 C 38.261719 19.84375 39.117188 19.671875 39.789062 19.375 C 40 19.535156 40.132812 19.699219 40.132812 19.84375 C 40.132812 20.292969 39.007812 20.972656 37.308594 20.972656 C 35.609375 20.972656 34.480469 20.292969 34.480469 19.84375 C 34.480469 19.703125 34.609375 19.535156 34.828125 19.375 C 35.5 19.671875 36.351562 19.84375 37.308594 19.84375 Z M 37.308594 22.144531 C 37.699219 22.144531 38.074219 22.109375 38.429688 22.058594 C 38.242188 22.414062 38.113281 22.804688 38.046875 23.21875 C 37.8125 23.246094 37.570312 23.265625 37.308594 23.265625 C 35.609375 23.265625 34.480469 22.589844 34.480469 22.144531 C 34.480469 22 34.609375 21.832031 34.828125 21.667969 C 35.5 21.96875 36.351562 22.144531 37.308594 22.144531 Z M 37.308594 25.5625 C 35.609375 25.5625 34.480469 24.886719 34.480469 24.4375 C 34.480469 24.292969 34.609375 24.125 34.828125 23.964844 C 35.5 24.261719 36.355469 24.4375 37.308594 24.4375 C 37.554688 24.4375 37.792969 24.425781 38.023438 24.402344 C 38.070312 24.777344 38.167969 25.136719 38.3125 25.472656 C 38.003906 25.527344 37.671875 25.5625 37.308594 25.5625 Z M 41.976562 26.71875 C 40.417969 26.71875 39.152344 25.449219 39.152344 23.886719 C 39.152344 22.324219 40.417969 21.050781 41.976562 21.050781 C 43.53125 21.050781 44.800781 22.324219 44.800781 23.886719 C 44.800781 25.449219 43.53125 26.71875 41.976562 26.71875 Z M 49.261719 24.4375 C 49.261719 24.886719 48.136719 25.5625 46.441406 25.5625 C 46.148438 25.5625 45.882812 25.535156 45.628906 25.503906 C 45.777344 25.160156 45.878906 24.800781 45.929688 24.417969 C 46.09375 24.429688 46.265625 24.4375 46.441406 24.4375 C 47.394531 24.4375 48.246094 24.261719 48.921875 23.964844 C 49.136719 24.125 49.261719 24.292969 49.261719 24.4375 Z M 49.261719 22.144531 C 49.261719 22.589844 48.136719 23.265625 46.441406 23.265625 C 46.257812 23.265625 46.082031 23.253906 45.914062 23.238281 C 45.847656 22.832031 45.71875 22.445312 45.539062 22.085938 C 45.828125 22.121094 46.128906 22.144531 46.4375 22.144531 C 47.394531 22.144531 48.246094 21.96875 48.917969 21.667969 C 49.136719 21.832031 49.261719 22 49.261719 22.144531 Z M 49.261719 19.84375 C 49.261719 20.292969 48.136719 20.972656 46.441406 20.972656 C 44.742188 20.972656 43.617188 20.292969 43.617188 19.84375 C 43.617188 19.703125 43.742188 19.535156 43.960938 19.375 C 44.632812 19.671875 45.484375 19.84375 46.441406 19.84375 C 47.394531 19.84375 48.246094 19.671875 48.921875 19.375 C 49.136719 19.535156 49.261719 19.703125 49.261719 19.84375 Z M 49.261719 17.550781 C 49.261719 18 48.136719 18.675781 46.441406 18.675781 C 44.742188 18.675781 43.617188 18 43.617188 17.550781 C 43.617188 17.40625 43.742188 17.238281 43.960938 17.078125 C 44.632812 17.375 45.484375 17.550781 46.441406 17.550781 C 47.394531 17.550781 48.246094 17.375 48.921875 17.078125 C 49.136719 17.238281 49.261719 17.40625 49.261719 17.550781 Z M 49.261719 17.550781 "/>
<path style=" stroke:none;fill-rule:nonzero;fill:rgb(26%, 36%, 39%);fill-opacity:1;" d="M 28.128906 21.019531 C 25.851562 21.019531 24.136719 22.007812 24.136719 23.316406 C 24.136719 23.742188 24.320312 24.128906 24.640625 24.460938 C 24.320312 24.796875 24.136719 25.1875 24.136719 25.613281 C 24.136719 26.921875 25.851562 27.90625 28.128906 27.90625 C 30.40625 27.90625 32.121094 26.921875 32.121094 25.613281 C 32.121094 25.1875 31.9375 24.796875 31.617188 24.460938 C 31.9375 24.128906 32.121094 23.742188 32.121094 23.316406 C 32.121094 22.007812 30.40625 21.019531 28.128906 21.019531 Z M 28.128906 22.191406 C 29.828125 22.191406 30.949219 22.867188 30.949219 23.316406 C 30.949219 23.761719 29.824219 24.4375 28.128906 24.4375 C 26.433594 24.4375 25.304688 23.761719 25.304688 23.316406 C 25.304688 22.867188 26.433594 22.191406 28.128906 22.191406 Z M 30.953125 25.613281 C 30.953125 26.058594 29.828125 26.734375 28.128906 26.734375 C 26.433594 26.734375 25.304688 26.058594 25.304688 25.613281 C 25.304688 25.46875 25.433594 25.296875 25.648438 25.136719 C 26.324219 25.433594 27.175781 25.613281 28.128906 25.613281 C 29.082031 25.613281 29.9375 25.433594 30.609375 25.136719 C 30.824219 25.296875 30.953125 25.46875 30.953125 25.613281 Z M 30.953125 25.613281 "/>
</g>
</svg>
