<?xml version="1.0" encoding="UTF-8"?>
<svg xmlns="http://www.w3.org/2000/svg" xmlns:xlink="http://www.w3.org/1999/xlink" width="32pt" height="32pt" viewBox="0 0 32 32" version="1.1">
<g id="surface1">
<path style=" stroke:none;fill-rule:nonzero;fill:rgb(100%,100%,100%,0.8);fill-opacity:1;" d="M 16.175781 31.699219 C 7.527344 31.738281 0.410156 24.535156 0.621094 15.746094 C 0.8125 7.371094 7.75 0.449219 16.375 0.542969 C 24.917969 0.636719 31.988281 7.75 31.753906 16.558594 C 31.535156 24.894531 24.65625 31.746094 16.175781 31.699219 Z M 2.511719 16.144531 C 2.582031 23.972656 8.933594 30.003906 16.433594 29.875 C 23.691406 29.746094 29.847656 23.824219 29.847656 16.125 C 29.847656 8.292969 23.449219 2.238281 15.925781 2.378906 C 8.660156 2.511719 2.5625 8.449219 2.511719 16.144531 Z M 2.511719 16.144531 "/>
<path style=" stroke:none;fill-rule:nonzero;fill:rgb(100%,100%,100%,0.8);fill-opacity:1;" d="M 12.925781 27.089844 C 12.925781 23.40625 12.925781 19.753906 12.925781 16.066406 C 12.113281 16.066406 11.324219 16.066406 10.519531 16.066406 C 10.519531 14.816406 10.519531 13.605469 10.519531 12.355469 C 10.625 12.347656 10.730469 12.339844 10.84375 12.339844 C 11.425781 12.339844 12.011719 12.324219 12.59375 12.34375 C 12.847656 12.347656 12.9375 12.28125 12.933594 12.019531 C 12.917969 11.066406 12.917969 10.125 12.925781 9.175781 C 12.933594 8.105469 13.230469 7.136719 13.996094 6.363281 C 14.730469 5.613281 15.675781 5.207031 16.699219 5.144531 C 18.347656 5.050781 20.003906 5.0625 21.660156 5.03125 C 21.683594 5.03125 21.699219 5.050781 21.738281 5.066406 C 21.738281 6.324219 21.738281 7.589844 21.738281 8.878906 C 21.621094 8.886719 21.503906 8.894531 21.402344 8.894531 C 20.652344 8.894531 19.902344 8.894531 19.152344 8.894531 C 18.394531 8.902344 17.949219 9.347656 17.949219 10.09375 C 17.949219 10.800781 17.949219 11.511719 17.957031 12.21875 C 17.957031 12.238281 17.96875 12.253906 17.988281 12.324219 C 19.222656 12.324219 20.472656 12.324219 21.785156 12.324219 C 21.625 13.59375 21.472656 14.808594 21.3125 16.0625 C 20.183594 16.0625 19.074219 16.0625 17.9375 16.0625 C 17.9375 19.761719 17.9375 23.425781 17.9375 27.097656 C 16.253906 27.089844 14.621094 27.089844 12.925781 27.089844 Z M 12.925781 27.089844 "/>
</g>
</svg>
