<?xml version="1.0" encoding="UTF-8"?>
<svg xmlns="http://www.w3.org/2000/svg" xmlns:xlink="http://www.w3.org/1999/xlink" width="32pt" height="32pt" viewBox="0 0 32 32" version="1.1">
<g id="surface1">
<path style=" stroke:none;fill-rule:nonzero;fill:rgb(100%,100%,100%,0.8);fill-opacity:1;" d="M 16.175781 31.699219 C 7.527344 31.738281 0.410156 24.535156 0.621094 15.746094 C 0.8125 7.375 7.746094 0.449219 16.371094 0.542969 C 24.917969 0.628906 31.988281 7.75 31.753906 16.550781 C 31.535156 24.886719 24.660156 31.738281 16.175781 31.699219 Z M 29.863281 16.113281 C 29.792969 8.277344 23.441406 2.246094 15.949219 2.375 C 8.660156 2.5 2.503906 8.449219 2.527344 16.152344 C 2.542969 23.996094 8.941406 30.011719 16.4375 29.875 C 23.71875 29.738281 29.8125 23.800781 29.863281 16.113281 Z M 29.863281 16.113281 "/>
<path style=" stroke:none;fill-rule:nonzero;fill:rgb(100%,100%,100%,0.8);fill-opacity:1;" d="M 6.1875 14.386719 C 6.832031 14.566406 7.457031 14.75 8.089844 14.925781 C 8.105469 14.894531 8.125 14.855469 8.144531 14.824219 C 6.886719 13.855469 6.207031 12.613281 6.238281 11.019531 C 6.25 10.191406 6.496094 9.324219 6.847656 8.878906 C 9.285156 11.714844 12.34375 13.3125 16.035156 13.550781 C 16.066406 12.871094 16.03125 12.21875 16.136719 11.59375 C 16.59375 8.964844 19.613281 7.308594 22.097656 8.28125 C 22.6875 8.511719 23.214844 8.839844 23.6875 9.253906 C 23.78125 9.339844 23.972656 9.40625 24.089844 9.371094 C 24.84375 9.113281 25.589844 8.832031 26.339844 8.550781 C 26.441406 8.511719 26.535156 8.449219 26.699219 8.363281 C 26.355469 9.417969 25.71875 10.167969 24.902344 10.824219 C 25.15625 10.78125 25.410156 10.746094 25.660156 10.6875 C 25.9375 10.625 26.207031 10.542969 26.472656 10.457031 C 26.722656 10.375 26.972656 10.28125 27.292969 10.160156 C 26.730469 11.003906 26.097656 11.675781 25.363281 12.246094 C 25.152344 12.40625 25.066406 12.5625 25.066406 12.839844 C 25.097656 16.308594 23.925781 19.324219 21.621094 21.886719 C 19.816406 23.886719 17.5625 25.128906 14.910156 25.644531 C 12.90625 26.03125 10.917969 25.996094 8.9375 25.472656 C 7.722656 25.15625 6.582031 24.65625 5.511719 24 C 5.480469 23.980469 5.457031 23.949219 5.394531 23.894531 C 7.824219 24.097656 9.988281 23.511719 11.96875 22.027344 C 9.902344 21.824219 8.53125 20.800781 7.761719 18.871094 C 8.433594 18.871094 9.042969 18.871094 9.65625 18.871094 C 9.660156 18.839844 9.667969 18.800781 9.675781 18.769531 C 8.386719 18.417969 7.394531 17.683594 6.746094 16.511719 C 6.363281 15.84375 6.191406 15.125 6.1875 14.386719 Z M 6.1875 14.386719 "/>
</g>
</svg>
