<?xml version="1.0" encoding="UTF-8"?>
<svg xmlns="http://www.w3.org/2000/svg" xmlns:xlink="http://www.w3.org/1999/xlink" width="32pt" height="32pt" viewBox="0 0 32 32" version="1.1">
<g id="surface1">
<path style=" stroke:none;fill-rule:nonzero;fill:rgb(100%,100%,100%,0.8);fill-opacity:1;" d="M 0.675781 31.746094 C 1.105469 30.449219 1.511719 29.238281 1.917969 28.027344 C 2.324219 26.824219 2.6875 25.605469 3.152344 24.425781 C 3.386719 23.824219 3.3125 23.375 3.011719 22.8125 C 1.375 19.777344 0.886719 16.519531 1.457031 13.128906 C 1.9375 10.261719 3.15625 7.722656 5.125 5.566406 C 8.371094 2.027344 12.417969 0.324219 17.207031 0.527344 C 20.714844 0.667969 23.8125 1.949219 26.457031 4.269531 C 28.917969 6.425781 30.527344 9.105469 31.269531 12.292969 C 31.871094 14.863281 31.800781 17.417969 31.0625 19.949219 C 30.125 23.15625 28.332031 25.800781 25.660156 27.8125 C 21.957031 30.613281 17.800781 31.480469 13.269531 30.597656 C 11.90625 30.339844 10.605469 29.847656 9.378906 29.1875 C 9.183594 29.082031 9.011719 29.058594 8.792969 29.128906 C 6.46875 29.878906 4.136719 30.625 1.8125 31.371094 C 1.464844 31.480469 1.105469 31.597656 0.675781 31.746094 Z M 4.628906 27.824219 C 4.753906 27.792969 4.8125 27.78125 4.871094 27.761719 C 6.324219 27.300781 7.78125 26.832031 9.246094 26.378906 C 9.378906 26.339844 9.566406 26.375 9.699219 26.4375 C 10.332031 26.75 10.9375 27.125 11.589844 27.402344 C 14.261719 28.53125 17.019531 28.714844 19.808594 27.9375 C 23.128906 27.003906 25.683594 25.027344 27.425781 22.03125 C 28.917969 19.46875 29.433594 16.699219 28.96875 13.785156 C 28.378906 10.082031 26.480469 7.167969 23.339844 5.097656 C 20.613281 3.3125 17.613281 2.707031 14.410156 3.214844 C 11.65625 3.652344 9.300781 4.90625 7.355469 6.917969 C 5.6875 8.644531 4.566406 10.683594 4.082031 13.027344 C 3.386719 16.378906 3.902344 19.558594 5.761719 22.449219 C 6.136719 23.03125 6.125 23.472656 5.902344 24.066406 C 5.441406 25.285156 5.0625 26.53125 4.628906 27.824219 Z M 4.628906 27.824219 "/>
<path style=" stroke:none;fill-rule:nonzero;fill:rgb(100%,100%,100%,0.8);fill-opacity:1;" d="M 24.332031 20.113281 C 24.3125 21.316406 23.746094 22.238281 22.59375 22.8125 C 21.464844 23.375 20.3125 23.519531 19.128906 23.058594 C 18.066406 22.636719 16.996094 22.230469 15.96875 21.722656 C 14.621094 21.058594 13.511719 20.058594 12.5 18.949219 C 11.378906 17.722656 10.433594 16.363281 9.652344 14.90625 C 9.09375 13.875 8.753906 12.78125 8.875 11.582031 C 9 10.308594 9.59375 9.285156 10.59375 8.519531 C 10.792969 8.371094 11.09375 8.300781 11.347656 8.277344 C 11.683594 8.25 12.011719 8.300781 12.34375 8.324219 C 12.621094 8.347656 12.769531 8.542969 12.863281 8.769531 C 13.105469 9.371094 13.324219 9.96875 13.558594 10.574219 C 13.714844 10.980469 13.832031 11.40625 14.019531 11.800781 C 14.25 12.285156 14.105469 12.691406 13.808594 13.066406 C 13.550781 13.386719 13.28125 13.691406 12.988281 13.96875 C 12.746094 14.199219 12.699219 14.4375 12.863281 14.71875 C 13.582031 16 14.457031 17.152344 15.613281 18.082031 C 16.375 18.691406 17.21875 19.152344 18.09375 19.574219 C 18.347656 19.699219 18.597656 19.683594 18.800781 19.449219 C 19.230469 18.957031 19.667969 18.46875 20.09375 17.96875 C 20.371094 17.652344 20.503906 17.589844 20.875 17.777344 C 21.941406 18.3125 23 18.871094 24.0625 19.425781 C 24.3125 19.5625 24.375 19.785156 24.332031 20.113281 Z M 24.332031 20.113281 "/>
</g>
</svg>
