<?xml version="1.0" encoding="UTF-8"?>
<svg xmlns="http://www.w3.org/2000/svg" xmlns:xlink="http://www.w3.org/1999/xlink" width="32pt" height="32pt" viewBox="0 0 32 32" version="1.1">
<g id="surface1">
<path style=" stroke:none;fill-rule:nonzero;fill:rgb(100%,100%,100%,0.8);fill-opacity:1;" d="M 16.175781 31.699219 C 7.527344 31.738281 0.410156 24.535156 0.621094 15.746094 C 0.8125 7.375 7.746094 0.449219 16.375 0.542969 C 24.917969 0.636719 31.988281 7.75 31.753906 16.550781 C 31.535156 24.894531 24.660156 31.746094 16.175781 31.699219 Z M 2.511719 16.136719 C 2.582031 23.957031 8.902344 29.96875 16.363281 29.875 C 23.628906 29.78125 29.84375 23.875 29.847656 16.128906 C 29.855469 8.308594 23.480469 2.277344 15.996094 2.375 C 8.722656 2.472656 2.566406 8.394531 2.511719 16.136719 Z M 2.511719 16.136719 "/>
<path style=" stroke:none;fill-rule:nonzero;fill:rgb(100%,100%,100%,0.8);fill-opacity:1;" d="M 16.105469 22.519531 C 13.996094 22.449219 11.878906 22.386719 9.769531 22.300781 C 9.316406 22.28125 8.855469 22.191406 8.425781 22.0625 C 7.402344 21.75 6.949219 20.933594 6.8125 19.957031 C 6.65625 18.855469 6.550781 17.746094 6.535156 16.628906 C 6.527344 15.136719 6.621094 13.636719 6.699219 12.136719 C 6.738281 11.496094 6.90625 10.855469 7.261719 10.308594 C 7.769531 9.511719 8.5625 9.246094 9.449219 9.191406 C 13.566406 8.957031 17.691406 8.941406 21.8125 9.144531 C 22.269531 9.167969 22.722656 9.199219 23.183594 9.25 C 24.207031 9.375 24.949219 9.910156 25.230469 10.910156 C 25.4375 11.65625 25.582031 12.4375 25.605469 13.214844 C 25.660156 14.894531 25.652344 16.582031 25.613281 18.269531 C 25.59375 18.96875 25.472656 19.675781 25.308594 20.363281 C 25.027344 21.527344 24.222656 22.160156 23.035156 22.261719 C 22.019531 22.34375 21 22.402344 19.980469 22.417969 C 18.691406 22.441406 17.402344 22.425781 16.105469 22.425781 C 16.105469 22.449219 16.105469 22.488281 16.105469 22.519531 Z M 19.300781 15.542969 C 17.550781 14.628906 15.855469 13.75 14.144531 12.855469 C 14.144531 14.667969 14.144531 16.417969 14.144531 18.21875 C 15.871094 17.324219 17.5625 16.449219 19.300781 15.542969 Z M 19.300781 15.542969 "/>
</g>
</svg>
