<?xml version="1.0" encoding="UTF-8"?>
<svg xmlns="http://www.w3.org/2000/svg" xmlns:xlink="http://www.w3.org/1999/xlink" width="99pt" height="57pt" viewBox="0 0 99 57" version="1.1">
<defs>
<linearGradient id="linear0" gradientUnits="userSpaceOnUse" x1="55.26" y1="36.34" x2="84.35" y2="36.34" gradientTransform="matrix(0.707143,0,0,0.7125,0,0)">
<stop offset="0" style="stop-color:rgb(89.411765%,70.588235%,20.784314%);stop-opacity:1;"/>
<stop offset="0.52" style="stop-color:rgb(94.509804%,81.568627%,28.627451%);stop-opacity:1;"/>
<stop offset="0.63" style="stop-color:rgb(95.686275%,85.490196%,27.843137%);stop-opacity:1;"/>
<stop offset="0.8" style="stop-color:rgb(97.254902%,90.196078%,26.666667%);stop-opacity:1;"/>
<stop offset="0.89" style="stop-color:rgb(97.254902%,90.980392%,45.098039%);stop-opacity:1;"/>
<stop offset="0.96" style="stop-color:rgb(97.254902%,91.372549%,57.647059%);stop-opacity:1;"/>
<stop offset="1" style="stop-color:rgb(97.254902%,91.372549%,62.352941%);stop-opacity:1;"/>
</linearGradient>
<linearGradient id="linear1" gradientUnits="userSpaceOnUse" x1="58.67" y1="41.89" x2="80.94" y2="41.89" gradientTransform="matrix(0.707143,0,0,0.7125,0,0)">
<stop offset="0" style="stop-color:rgb(13.333333%,13.333333%,12.941176%);stop-opacity:1;"/>
<stop offset="0.24" style="stop-color:rgb(14.117647%,14.901961%,12.156863%);stop-opacity:1;"/>
<stop offset="0.48" style="stop-color:rgb(16.078431%,19.607843%,9.411765%);stop-opacity:1;"/>
<stop offset="0.66" style="stop-color:rgb(18.431373%,25.490196%,5.882353%);stop-opacity:1;"/>
<stop offset="0.78" style="stop-color:rgb(17.647059%,23.137255%,7.058824%);stop-opacity:1;"/>
<stop offset="0.93" style="stop-color:rgb(14.901961%,17.254902%,10.588235%);stop-opacity:1;"/>
<stop offset="1" style="stop-color:rgb(13.333333%,13.333333%,12.941176%);stop-opacity:1;"/>
</linearGradient>
<linearGradient id="linear2" gradientUnits="userSpaceOnUse" x1="54.8" y1="29.37" x2="84.8" y2="29.37" gradientTransform="matrix(0.707143,0,0,0.7125,0,0)">
<stop offset="0" style="stop-color:rgb(13.333333%,13.333333%,12.941176%);stop-opacity:1;"/>
<stop offset="0.15" style="stop-color:rgb(15.294118%,15.294118%,14.901961%);stop-opacity:1;"/>
<stop offset="0.33" style="stop-color:rgb(20.784314%,20.784314%,20.784314%);stop-opacity:1;"/>
<stop offset="0.53" style="stop-color:rgb(30.196078%,30.196078%,30.196078%);stop-opacity:1;"/>
<stop offset="0.7" style="stop-color:rgb(40.392157%,40.392157%,40.392157%);stop-opacity:1;"/>
<stop offset="0.76" style="stop-color:rgb(38.431373%,38.431373%,38.039216%);stop-opacity:1;"/>
<stop offset="0.84" style="stop-color:rgb(32.156863%,32.156863%,32.156863%);stop-opacity:1;"/>
<stop offset="0.94" style="stop-color:rgb(21.960784%,21.960784%,21.568627%);stop-opacity:1;"/>
<stop offset="1" style="stop-color:rgb(13.333333%,13.333333%,12.941176%);stop-opacity:1;"/>
</linearGradient>
<linearGradient id="linear3" gradientUnits="userSpaceOnUse" x1="58.67" y1="16.84" x2="80.94" y2="16.84" gradientTransform="matrix(0.707143,0,0,0.7125,0,0)">
<stop offset="0" style="stop-color:rgb(13.333333%,13.333333%,12.941176%);stop-opacity:1;"/>
<stop offset="0.15" style="stop-color:rgb(15.294118%,15.294118%,14.901961%);stop-opacity:1;"/>
<stop offset="0.32" style="stop-color:rgb(20.392157%,20.392157%,20%);stop-opacity:1;"/>
<stop offset="0.5" style="stop-color:rgb(29.019608%,29.019608%,28.627451%);stop-opacity:1;"/>
<stop offset="0.67" style="stop-color:rgb(40.392157%,40.392157%,40.392157%);stop-opacity:1;"/>
<stop offset="0.74" style="stop-color:rgb(38.431373%,38.431373%,38.039216%);stop-opacity:1;"/>
<stop offset="0.83" style="stop-color:rgb(32.156863%,32.156863%,32.156863%);stop-opacity:1;"/>
<stop offset="0.93" style="stop-color:rgb(21.960784%,21.960784%,21.568627%);stop-opacity:1;"/>
<stop offset="1" style="stop-color:rgb(13.333333%,13.333333%,12.941176%);stop-opacity:1;"/>
</linearGradient>
<linearGradient id="linear4" gradientUnits="userSpaceOnUse" x1="55.26" y1="22.4" x2="84.35" y2="22.4" gradientTransform="matrix(0.707143,0,0,0.7125,0,0)">
<stop offset="0" style="stop-color:rgb(89.411765%,70.588235%,20.784314%);stop-opacity:1;"/>
<stop offset="0.31" style="stop-color:rgb(93.72549%,79.215686%,19.607843%);stop-opacity:1;"/>
<stop offset="0.38" style="stop-color:rgb(94.117647%,80.392157%,23.921569%);stop-opacity:1;"/>
<stop offset="0.49" style="stop-color:rgb(94.509804%,81.568627%,28.627451%);stop-opacity:1;"/>
<stop offset="0.54" style="stop-color:rgb(94.901961%,85.098039%,38.039216%);stop-opacity:1;"/>
<stop offset="0.66" style="stop-color:rgb(96.078431%,93.333333%,58.039216%);stop-opacity:1;"/>
<stop offset="0.75" style="stop-color:rgb(96.470588%,98.039216%,70.588235%);stop-opacity:1;"/>
<stop offset="0.8" style="stop-color:rgb(96.862745%,100%,75.294118%);stop-opacity:1;"/>
<stop offset="0.91" style="stop-color:rgb(97.254902%,94.509804%,67.058824%);stop-opacity:1;"/>
<stop offset="1" style="stop-color:rgb(97.254902%,91.372549%,62.352941%);stop-opacity:1;"/>
</linearGradient>
</defs>
<g id="surface1">
<path style=" stroke:none;fill-rule:nonzero;fill:rgb(100%,100%,100%);fill-opacity:1;" d="M 1.414062 0 L 97.585938 0 C 98.367188 0 99 0.636719 99 1.425781 L 99 55.574219 C 99 56.363281 98.367188 57 97.585938 57 L 1.414062 57 C 0.632812 57 0 56.363281 0 55.574219 L 0 1.425781 C 0 0.636719 0.632812 0 1.414062 0 Z M 1.414062 0 "/>
<path style=" stroke:none;fill-rule:evenodd;fill:rgb(13.333333%,13.333333%,12.941176%);fill-opacity:1;" d="M 46.234375 39.085938 C 44.605469 39.085938 43.6875 40.027344 43.453125 41.9375 L 43.269531 43.867188 C 43.304688 44.558594 42.796875 45.15625 42.117188 45.230469 C 42.042969 45.21875 41.964844 45.246094 41.914062 45.300781 C 41.859375 45.355469 41.832031 45.429688 41.839844 45.507812 L 41.839844 46.285156 C 41.839844 46.453125 41.933594 46.546875 42.117188 46.546875 C 43.667969 46.546875 44.527344 45.636719 44.699219 43.796875 L 44.882812 42.09375 C 44.871094 41.65625 44.988281 41.222656 45.222656 40.855469 C 45.515625 40.578125 45.914062 40.449219 46.3125 40.5 L 47.542969 40.5 L 47.542969 46.199219 C 47.527344 46.273438 47.550781 46.347656 47.605469 46.398438 C 47.65625 46.449219 47.730469 46.476562 47.804688 46.460938 L 48.695312 46.460938 C 48.765625 46.472656 48.835938 46.445312 48.890625 46.394531 C 48.941406 46.34375 48.964844 46.269531 48.957031 46.199219 L 48.957031 39.367188 C 48.957031 39.179688 48.863281 39.085938 48.695312 39.085938 Z M 46.234375 39.085938 "/>
<path style=" stroke:none;fill-rule:evenodd;fill:rgb(13.333333%,13.333333%,12.941176%);fill-opacity:1;" d="M 36.199219 43.355469 L 36.199219 39.367188 C 36.207031 39.289062 36.183594 39.214844 36.128906 39.160156 C 36.074219 39.105469 36 39.078125 35.921875 39.085938 L 35.003906 39.085938 C 34.832031 39.085938 34.742188 39.179688 34.742188 39.367188 L 34.742188 43.820312 C 34.742188 45.644531 35.605469 46.570312 37.324219 46.570312 C 38.199219 46.554688 39.042969 46.226562 39.699219 45.644531 L 39.855469 46.292969 C 39.902344 46.378906 39.988281 46.4375 40.089844 46.449219 L 40.730469 46.449219 C 40.914062 46.449219 41.007812 46.371094 41.007812 46.210938 L 41.007812 39.367188 C 41.007812 39.179688 40.902344 39.085938 40.703125 39.085938 L 39.820312 39.085938 C 39.742188 39.078125 39.667969 39.105469 39.613281 39.160156 C 39.558594 39.214844 39.535156 39.289062 39.542969 39.367188 L 39.542969 44.175781 C 39.066406 44.792969 38.328125 45.15625 37.550781 45.152344 C 36.644531 45.152344 36.199219 44.546875 36.199219 43.371094 Z M 36.199219 43.355469 "/>
<path style=" stroke:none;fill-rule:evenodd;fill:rgb(13.333333%,13.333333%,12.941176%);fill-opacity:1;" d="M 33.667969 43.128906 C 33.667969 40.855469 32.4375 39.707031 29.96875 39.707031 L 28.128906 39.707031 L 28.128906 37.464844 L 32.371094 37.464844 C 32.558594 37.464844 32.632812 37.355469 32.648438 37.15625 L 32.648438 36.335938 C 32.648438 36.136719 32.558594 36.03125 32.371094 36.03125 L 26.871094 36.03125 C 26.6875 36.03125 26.59375 36.136719 26.59375 36.335938 L 26.59375 43.355469 C 26.59375 45.441406 27.578125 46.496094 29.53125 46.496094 L 29.792969 46.496094 C 32.351562 46.496094 33.644531 45.371094 33.644531 43.128906 Z M 30.011719 41.105469 C 31.425781 41.105469 32.132812 41.816406 32.132812 43.128906 C 32.132812 44.4375 31.425781 45.09375 30.011719 45.109375 L 29.550781 45.109375 C 28.597656 45.109375 28.136719 44.566406 28.136719 43.511719 L 28.136719 41.097656 Z M 30.011719 41.105469 "/>
<path style=" stroke:none;fill-rule:evenodd;fill:rgb(13.333333%,13.333333%,12.941176%);fill-opacity:1;" d="M 70.269531 42.039062 L 66.9375 42.039062 L 66.9375 39.367188 C 66.949219 39.289062 66.921875 39.214844 66.867188 39.160156 C 66.8125 39.105469 66.738281 39.078125 66.664062 39.085938 L 65.765625 39.085938 C 65.59375 39.085938 65.515625 39.179688 65.53125 39.367188 L 65.53125 46.183594 C 65.53125 46.355469 65.59375 46.449219 65.765625 46.449219 L 66.667969 46.449219 C 66.851562 46.449219 66.945312 46.355469 66.945312 46.183594 L 66.945312 43.335938 L 70.277344 43.335938 L 70.277344 46.183594 C 70.277344 46.355469 70.382812 46.449219 70.566406 46.449219 L 71.421875 46.449219 C 71.605469 46.449219 71.695312 46.355469 71.695312 46.183594 L 71.695312 39.367188 C 71.707031 39.289062 71.679688 39.214844 71.625 39.160156 C 71.574219 39.105469 71.496094 39.078125 71.421875 39.085938 L 70.558594 39.085938 C 70.480469 39.078125 70.402344 39.101562 70.347656 39.15625 C 70.289062 39.210938 70.261719 39.289062 70.269531 39.367188 Z M 70.269531 42.039062 "/>
<path style=" stroke:none;fill-rule:evenodd;fill:rgb(13.333333%,13.333333%,12.941176%);fill-opacity:1;" d="M 63.566406 39.085938 L 62.675781 39.085938 C 62.476562 39.085938 62.371094 39.179688 62.371094 39.367188 L 62.371094 44.175781 C 61.894531 44.796875 61.15625 45.160156 60.375 45.152344 C 59.484375 45.152344 59.023438 44.546875 59.023438 43.371094 L 59.023438 39.378906 C 59.023438 39.195312 58.933594 39.101562 58.761719 39.101562 L 57.867188 39.101562 C 57.667969 39.101562 57.5625 39.195312 57.5625 39.378906 L 57.5625 43.820312 C 57.5625 45.644531 58.425781 46.570312 60.140625 46.570312 C 61.03125 46.582031 61.890625 46.25 62.539062 45.644531 L 62.679688 46.292969 C 62.730469 46.382812 62.824219 46.441406 62.929688 46.449219 L 63.570312 46.449219 C 63.742188 46.449219 63.832031 46.371094 63.832031 46.210938 L 63.832031 39.367188 C 63.832031 39.179688 63.742188 39.085938 63.570312 39.085938 Z M 63.566406 39.085938 "/>
<path style=" stroke:none;fill-rule:evenodd;fill:rgb(13.333333%,13.333333%,12.941176%);fill-opacity:1;" d="M 63.792969 36.335938 C 63.792969 36.136719 63.699219 36.03125 63.515625 36.03125 L 57.859375 36.03125 C 57.773438 36.023438 57.691406 36.050781 57.632812 36.109375 C 57.574219 36.171875 57.546875 36.253906 57.554688 36.335938 L 57.554688 37.15625 C 57.546875 37.242188 57.574219 37.324219 57.632812 37.382812 C 57.691406 37.441406 57.773438 37.472656 57.859375 37.464844 L 63.515625 37.464844 C 63.699219 37.464844 63.792969 37.355469 63.792969 37.15625 Z M 63.792969 36.335938 "/>
<path style=" stroke:none;fill-rule:evenodd;fill:rgb(13.333333%,13.333333%,12.941176%);fill-opacity:1;" d="M 54.386719 40.476562 C 54.550781 40.757812 54.625 41.078125 54.597656 41.402344 L 54.597656 41.574219 L 52.984375 41.652344 C 51.175781 41.773438 50.269531 42.578125 50.269531 44.097656 C 50.269531 45.734375 51.191406 46.570312 53.035156 46.570312 C 53.699219 46.574219 54.351562 46.386719 54.910156 46.027344 L 55.03125 46.292969 C 55.09375 46.375 55.1875 46.429688 55.292969 46.449219 L 55.863281 46.449219 C 56.003906 46.449219 56.078125 46.371094 56.078125 46.210938 L 56.078125 41.410156 C 56.078125 39.695312 55.144531 38.832031 53.246094 38.832031 C 52.503906 38.8125 51.761719 38.945312 51.070312 39.214844 C 50.980469 39.277344 50.917969 39.371094 50.898438 39.480469 L 50.898438 40.300781 C 50.914062 40.390625 50.953125 40.472656 51.019531 40.535156 L 51.253906 40.535156 C 51.890625 40.296875 52.566406 40.179688 53.246094 40.191406 C 53.65625 40.15625 54.0625 40.246094 54.414062 40.457031 Z M 53.035156 45.214844 C 52.207031 45.214844 51.804688 44.84375 51.804688 44.105469 C 51.804688 43.363281 52.171875 42.992188 52.957031 42.929688 L 54.570312 42.75 L 54.570312 44.730469 C 54.097656 45.019531 53.558594 45.179688 53.007812 45.195312 Z M 53.035156 45.214844 "/>
<path style=" stroke:none;fill-rule:nonzero;fill:url(#linear0);" d="M 41.488281 28.078125 C 44.316406 28.15625 47.589844 28.238281 49.402344 28.238281 C 51.210938 28.238281 54.40625 28.164062 57.234375 28.085938 C 58.398438 26.785156 59.226562 25.214844 59.648438 23.511719 L 39.078125 23.511719 C 39.496094 25.210938 40.324219 26.777344 41.488281 28.078125 Z M 41.488281 28.078125 "/>
<path style=" stroke:none;fill-rule:nonzero;fill:url(#linear1);" d="M 41.488281 28.078125 C 43.5 30.324219 46.359375 31.605469 49.363281 31.605469 C 52.363281 31.605469 55.226562 30.324219 57.234375 28.078125 C 54.40625 28.15625 51.203125 28.230469 49.402344 28.230469 C 47.597656 28.230469 44.34375 28.164062 41.488281 28.078125 Z M 41.488281 28.078125 "/>
<path style=" stroke:none;fill-rule:nonzero;fill:url(#linear2);" d="M 38.75 20.925781 C 38.753906 21.796875 38.863281 22.667969 39.078125 23.511719 L 59.648438 23.511719 C 60.078125 21.792969 60.078125 19.996094 59.648438 18.277344 L 39.078125 18.277344 C 38.859375 19.140625 38.75 20.03125 38.75 20.925781 Z M 38.75 20.925781 "/>
<path style=" stroke:none;fill-rule:nonzero;fill:url(#linear3);" d="M 57.234375 13.765625 C 55.226562 11.519531 52.363281 10.238281 49.363281 10.238281 C 46.359375 10.238281 43.5 11.519531 41.488281 13.765625 C 44.316406 13.6875 47.589844 13.609375 49.402344 13.609375 C 51.210938 13.609375 54.402344 13.6875 57.234375 13.765625 Z M 57.234375 13.765625 "/>
<path style=" stroke:none;fill-rule:nonzero;fill:url(#linear4);" d="M 49.402344 13.609375 C 47.589844 13.609375 44.34375 13.6875 41.488281 13.765625 C 40.328125 15.058594 39.5 16.617188 39.078125 18.304688 L 59.648438 18.304688 C 59.222656 16.617188 58.394531 15.058594 57.234375 13.765625 C 54.402344 13.6875 51.203125 13.609375 49.402344 13.609375 Z M 49.402344 13.609375 "/>
</g>
</svg>
