<?xml version="1.0" encoding="UTF-8"?>
<svg xmlns="http://www.w3.org/2000/svg" xmlns:xlink="http://www.w3.org/1999/xlink" width="99pt" height="57pt" viewBox="0 0 99 57" version="1.1">
<g id="surface1">
<path style=" stroke:none;fill-rule:nonzero;fill:rgb(100%,100%,100%);fill-opacity:1;" d="M 1.414062 0 L 97.585938 0 C 98.367188 0 99 0.636719 99 1.425781 L 99 55.574219 C 99 56.363281 98.367188 57 97.585938 57 L 1.414062 57 C 0.632812 57 0 56.363281 0 55.574219 L 0 1.425781 C 0 0.636719 0.632812 0 1.414062 0 Z M 1.414062 0 "/>
<path style=" stroke:none;fill-rule:nonzero;fill:rgb(32.54902%,57.254902%,35.686275%);fill-opacity:1;" d="M 50.878906 10.53125 L 50.878906 22.285156 C 50.875 22.796875 50.460938 23.210938 49.953125 23.207031 L 48.539062 23.207031 C 48.46875 23.207031 48.410156 23.261719 48.410156 23.335938 L 48.410156 33.195312 C 48.757812 33.195312 49.117188 33.246094 49.457031 33.246094 C 55.441406 33.261719 60.40625 28.578125 60.78125 22.558594 C 61.15625 16.539062 56.8125 11.269531 50.871094 10.53125 Z M 50.644531 28.066406 C 49.863281 28.066406 49.230469 27.425781 49.230469 26.640625 C 49.230469 25.851562 49.863281 25.214844 50.644531 25.214844 C 51.425781 25.214844 52.058594 25.851562 52.058594 26.640625 C 52.054688 27.425781 51.425781 28.058594 50.644531 28.058594 Z M 53.960938 28.066406 C 53.179688 28.066406 52.546875 27.425781 52.546875 26.640625 C 52.546875 25.851562 53.179688 25.214844 53.960938 25.214844 C 54.742188 25.214844 55.375 25.851562 55.375 26.640625 C 55.371094 27.425781 54.742188 28.058594 53.960938 28.058594 Z M 57.277344 28.066406 C 56.496094 28.066406 55.863281 27.425781 55.863281 26.640625 C 55.863281 25.851562 56.496094 25.214844 57.277344 25.214844 C 58.058594 25.214844 58.691406 25.851562 58.691406 26.640625 C 58.6875 27.425781 58.058594 28.058594 57.277344 28.058594 Z M 57.277344 28.066406 "/>
<path style=" stroke:none;fill-rule:nonzero;fill:rgb(32.54902%,57.254902%,35.686275%);fill-opacity:1;" d="M 49.5 10.445312 C 43.710938 10.4375 38.851562 14.828125 38.234375 20.628906 C 37.613281 26.425781 41.4375 31.757812 47.097656 32.988281 L 47.097656 22.757812 C 47.101562 22.261719 47.496094 21.859375 47.988281 21.84375 L 49.402344 21.84375 C 49.46875 21.84375 49.523438 21.792969 49.527344 21.722656 L 49.527344 10.445312 Z M 47.316406 19.84375 C 46.535156 19.84375 45.902344 19.207031 45.902344 18.417969 C 45.902344 17.632812 46.535156 16.992188 47.316406 16.992188 C 48.097656 16.992188 48.730469 17.632812 48.730469 18.417969 C 48.730469 19.207031 48.097656 19.84375 47.316406 19.84375 Z M 47.316406 19.84375 "/>
<path style=" stroke:none;fill-rule:nonzero;fill:rgb(32.54902%,57.254902%,35.686275%);fill-opacity:1;" d="M 72.777344 40.292969 L 72.777344 42.414062 L 69.949219 42.414062 L 69.949219 40.292969 L 68.558594 40.292969 L 68.558594 45.898438 L 69.949219 45.898438 L 69.949219 43.632812 L 72.777344 43.632812 L 72.777344 45.898438 L 74.171875 45.898438 L 74.171875 40.292969 Z M 72.777344 40.292969 "/>
<path style=" stroke:none;fill-rule:nonzero;fill:rgb(32.54902%,57.254902%,35.686275%);fill-opacity:1;" d="M 49.554688 40.917969 C 49.355469 40.460938 48.90625 40.164062 48.410156 40.164062 C 47.914062 40.164062 47.464844 40.460938 47.265625 40.917969 L 44.980469 45.90625 L 46.464844 45.90625 L 46.960938 44.722656 L 49.855469 44.722656 L 50.347656 45.90625 L 51.832031 45.90625 Z M 47.433594 43.597656 L 48.289062 41.558594 C 48.308594 41.511719 48.355469 41.480469 48.402344 41.480469 C 48.453125 41.480469 48.5 41.511719 48.515625 41.558594 L 49.371094 43.597656 Z M 47.433594 43.597656 "/>
<path style=" stroke:none;fill-rule:nonzero;fill:rgb(32.54902%,57.254902%,35.686275%);fill-opacity:1;" d="M 32.96875 39.28125 C 32.308594 39.257812 31.722656 39.695312 31.550781 40.335938 L 29.734375 44.550781 L 27.917969 40.335938 C 27.746094 39.695312 27.160156 39.257812 26.503906 39.28125 C 26.144531 39.28125 25.800781 39.4375 25.5625 39.710938 C 25.324219 39.984375 25.214844 40.34375 25.257812 40.707031 L 25.257812 45.929688 L 26.671875 45.929688 L 26.671875 40.820312 L 28.503906 45 C 28.664062 45.550781 29.15625 45.933594 29.722656 45.957031 C 30.289062 45.933594 30.777344 45.550781 30.9375 45 L 32.769531 40.820312 L 32.769531 45.898438 L 34.183594 45.898438 L 34.183594 40.675781 C 34.21875 40.324219 34.109375 39.976562 33.878906 39.710938 C 33.644531 39.445312 33.316406 39.289062 32.96875 39.28125 Z M 32.96875 39.28125 "/>
<path style=" stroke:none;fill-rule:nonzero;fill:rgb(32.54902%,57.254902%,35.686275%);fill-opacity:1;" d="M 36.652344 44.714844 C 36.585938 44.714844 36.53125 44.664062 36.53125 44.59375 L 36.53125 43.597656 L 40.011719 43.597656 L 40.011719 42.457031 L 36.53125 42.457031 L 36.53125 41.601562 C 36.53125 41.535156 36.585938 41.480469 36.652344 41.480469 L 40.089844 41.480469 L 40.089844 40.292969 L 35.964844 40.292969 C 35.511719 40.296875 35.140625 40.667969 35.136719 41.125 L 35.136719 45.058594 C 35.140625 45.515625 35.511719 45.886719 35.964844 45.890625 L 40.089844 45.890625 L 40.089844 44.714844 Z M 36.652344 44.714844 "/>
<path style=" stroke:none;fill-rule:nonzero;fill:rgb(32.54902%,57.254902%,35.686275%);fill-opacity:1;" d="M 42.429688 45.898438 L 42.429688 41.625 C 42.429688 41.558594 42.480469 41.503906 42.546875 41.503906 L 45.984375 41.503906 L 45.984375 40.292969 L 41.882812 40.292969 C 41.429688 40.296875 41.0625 40.667969 41.058594 41.125 L 41.058594 45.898438 Z M 42.429688 45.898438 "/>
<path style=" stroke:none;fill-rule:nonzero;fill:rgb(32.54902%,57.254902%,35.686275%);fill-opacity:1;" d="M 67.632812 43.085938 C 67.632812 41.125 66.796875 40.234375 64.683594 40.234375 L 64.195312 40.234375 C 62.074219 40.234375 61.246094 41.152344 61.246094 43.085938 C 61.246094 45.015625 62.101562 45.933594 64.207031 45.933594 L 64.675781 45.933594 C 66.796875 45.933594 67.636719 45 67.636719 43.085938 Z M 64.660156 44.792969 L 64.214844 44.792969 C 63.050781 44.792969 62.601562 44.269531 62.601562 43.09375 C 62.601562 41.953125 63 41.394531 64.214844 41.394531 L 64.660156 41.394531 C 65.84375 41.394531 66.273438 41.960938 66.273438 43.09375 C 66.273438 44.269531 65.8125 44.792969 64.660156 44.792969 Z M 64.660156 44.792969 "/>
<path style=" stroke:none;fill-rule:nonzero;fill:rgb(32.54902%,57.254902%,35.686275%);fill-opacity:1;" d="M 57.355469 39.410156 L 54.589844 39.410156 C 52.535156 39.410156 51.707031 40.457031 51.707031 42.257812 C 51.703125 42.527344 51.722656 42.792969 51.761719 43.054688 C 51.980469 44.351562 52.738281 45.152344 54.667969 45.152344 L 55.277344 45.152344 L 55.277344 45.863281 L 56.691406 45.863281 L 56.691406 45.152344 L 57.277344 45.152344 C 59.210938 45.152344 59.964844 44.351562 60.183594 43.054688 C 60.226562 42.792969 60.246094 42.527344 60.242188 42.257812 C 60.242188 40.460938 59.398438 39.410156 57.355469 39.410156 Z M 55.277344 43.996094 L 54.640625 43.996094 C 53.699219 43.996094 53.355469 43.640625 53.148438 43.085938 C 53.066406 42.828125 53.027344 42.5625 53.035156 42.292969 C 53.035156 41.097656 53.617188 40.613281 54.449219 40.613281 L 55.304688 40.613281 Z M 58.8125 43.085938 C 58.609375 43.640625 58.269531 43.996094 57.320312 43.996094 L 56.683594 43.996094 L 56.683594 40.613281 L 57.539062 40.613281 C 58.347656 40.613281 58.890625 41.117188 58.890625 42.316406 C 58.902344 42.574219 58.871094 42.835938 58.800781 43.085938 Z M 58.8125 43.085938 "/>
</g>
</svg>
