<?xml version="1.0" encoding="UTF-8"?>
<svg xmlns="http://www.w3.org/2000/svg" xmlns:xlink="http://www.w3.org/1999/xlink" width="99pt" height="57pt" viewBox="0 0 99 57" version="1.1">
<g id="surface1">
<path style=" stroke:none;fill-rule:nonzero;fill:rgb(100%,100%,100%);fill-opacity:1;" d="M 1.414062 0 L 97.585938 0 C 98.367188 0 99 0.636719 99 1.425781 L 99 55.574219 C 99 56.363281 98.367188 57 97.585938 57 L 1.414062 57 C 0.632812 57 0 56.363281 0 55.574219 L 0 1.425781 C 0 0.636719 0.632812 0 1.414062 0 Z M 1.414062 0 "/>
<path style=" stroke:none;fill-rule:nonzero;fill:rgb(75.294118%,5.882353%,9.411765%);fill-opacity:1;" d="M 80.8125 32.925781 C 79.851562 33.039062 78.886719 33.097656 77.921875 33.101562 C 76.023438 33.101562 75.65625 32.488281 75.65625 30.964844 L 75.65625 29.167969 C 75.65625 27.617188 75.984375 27.03125 77.921875 27.03125 C 78.839844 27.039062 79.753906 27.105469 80.664062 27.230469 L 80.863281 24.429688 C 79.800781 24.289062 78.734375 24.207031 77.664062 24.1875 C 73.726562 24.1875 72.292969 25.5 72.292969 28.683594 L 72.292969 31.457031 C 72.292969 34.96875 74.03125 35.960938 77.652344 35.960938 C 79.109375 35.960938 81.046875 35.71875 81.046875 35.71875 Z M 80.8125 32.925781 "/>
<path style=" stroke:none;fill-rule:nonzero;fill:rgb(75.294118%,5.882353%,9.411765%);fill-opacity:1;" d="M 61.089844 27.28125 L 64.355469 27.28125 L 64.355469 35.789062 L 67.75 35.789062 L 67.75 27.28125 L 71.019531 27.28125 L 71.214844 24.390625 L 60.890625 24.390625 Z M 61.089844 27.28125 "/>
<path style=" stroke:none;fill-rule:nonzero;fill:rgb(75.294118%,5.882353%,9.411765%);fill-opacity:1;" d="M 54.167969 34.648438 L 55.976562 30.273438 L 56.175781 30.273438 L 56.550781 35.789062 L 59.832031 35.789062 L 59.082031 24.390625 L 55.914062 24.390625 L 53.175781 30.867188 L 52.980469 30.867188 L 50.136719 24.390625 L 47.003906 24.390625 L 46.253906 35.789062 L 49.449219 35.789062 L 49.78125 30.273438 L 49.980469 30.273438 L 52.011719 34.648438 Z M 54.167969 34.648438 "/>
<path style=" stroke:none;fill-rule:nonzero;fill:rgb(75.294118%,5.882353%,9.411765%);fill-opacity:1;" d="M 40.597656 39.1875 C 40.597656 40.445312 39.582031 41.46875 38.335938 41.46875 L 20.230469 41.46875 C 18.980469 41.46875 17.96875 40.445312 17.96875 39.1875 L 17.96875 20.96875 C 17.96875 19.710938 18.980469 18.6875 20.230469 18.6875 L 38.335938 18.6875 C 39.582031 18.6875 40.597656 19.710938 40.597656 20.96875 Z M 29.28125 38.519531 C 33.527344 38.519531 35.40625 35.125 35.40625 31.757812 C 35.40625 27.019531 32.140625 21.617188 29.28125 21.617188 C 26.425781 21.617188 23.160156 27.074219 23.160156 31.785156 C 23.160156 35.148438 25.054688 38.546875 29.28125 38.546875 "/>
<path style=" stroke:none;fill-rule:nonzero;fill:rgb(100%,100%,100%);fill-opacity:1;" d="M 35.40625 31.761719 C 35.40625 27.023438 32.140625 21.625 29.28125 21.625 C 26.425781 21.625 23.160156 27.023438 23.160156 31.761719 C 23.160156 35.125 25.046875 38.523438 29.28125 38.523438 C 33.519531 38.523438 35.40625 35.132812 35.40625 31.761719 Z M 35.40625 31.761719 "/>
</g>
</svg>
